<svg xmlns="http://www.w3.org/2000/svg" width="32" height="32" fill="#fff" xmlns:v="https://vecta.io/nano"><path d="M4.73 18.94l.59.03c0-.22.04-.42.1-.58.09-.24.2-.4.45-.55.24-.14.65-.26 1.29-.26 1.04 0 2.27-.22 3.41-.61 1.14-.4 2.2-.96 2.87-1.78.31-.39.66-.95 1.05-1.62l1.75-3.35.71-1.53.44-1.1-.56-.19-.08.59.44.06 1.6.27.77.17c.22.06.39.12.42.14.21.11.28.19.3.22l.02.06s.02.08.02.16c0 .09 0 .2-.03.35l-.12.94.9-.3.1-.03 1.51-.44c.68-.17 1.45-.32 1.95-.31h.09l.02-.59-.59-.03-.06 2.31.07 1.5c.09.6.32 1.31.55 2.04s.46 1.49.54 2.08c.11.74.19 1.57.19 2.31 0 .57-.06 1.09-.17 1.44l.56.18-.21-.55s-.04.01-.11.04l-1.55.53-.97.27c-.3.07-.56.11-.68.11v.22l.05-.21h-.05v.21l.05-.21-.1.47.35-.32c-.1-.11-.2-.14-.25-.15l-.1.47.35-.32-.39.35h.53c0-.09-.04-.25-.14-.35l-.39.35h.53-.49l.45.19s.04-.09.04-.19h-.49l.45.19-.44-.19.4.27.04-.08-.44-.19.4.27.12-.18-.23-2.05-.81.56c-.06.05-.23.13-.46.22-.8.32-2.29.69-3.74 1l-3.59.63c-.25.03-.61.05-1.04.04-1.1 0-2.66-.11-4.18-.37s-3.03-.69-3.99-1.26l-.3.51.59-.09h0c0-.06-.04-.35-.04-.64 0-.22.03-.46.06-.54l-.56-.2.5.31.24-.38.08-.13v-.16l-.58-.03-.5-.31-.24.38-.03.05-.02.06c-.12.33-.13.65-.13.95 0 .44.06.8.06.82l.04.28.24.14c1.19.7 2.79 1.13 4.39 1.41s3.21.39 4.38.39l1.18-.05c.9-.1 2.65-.41 4.34-.79l2.36-.6.93-.31c.27-.11.5-.21.69-.34l-.33-.49-.59.07.1.86.59-.07-.49-.33s-.04.06-.06.11c-.02.06-.06.14-.06.28a.68.68 0 0 0 .07.29.65.65 0 0 0 .36.32c.13.05.23.06.33.06.34 0 .7-.07 1.1-.17 1.18-.29 2.63-.85 2.64-.85l.26-.1.09-.27c.17-.55.23-1.16.23-1.81 0-.83-.1-1.71-.21-2.48-.11-.74-.35-1.53-.59-2.27l-.51-1.85c-.04-.28-.06-.8-.06-1.33l.03-1.53.03-.72.03-.6-.6-.02h-.13c-.79 0-1.74.22-2.54.42l-1.4.42.19.56.59.07.04-.5c0-.15-.01-.3-.05-.45-.05-.23-.18-.45-.35-.62-.16-.17-.35-.29-.57-.41a2.75 2.75 0 0 0-.43-.17c-.54-.17-1.32-.31-1.99-.42l-1.21-.19-.49-.07-.16.47c-.09.28-.32.81-.61 1.45l-1.62 3.26-.85 1.5c-.26.44-.5.8-.68 1.01-.42.53-1.32 1.06-2.34 1.4-1.02.35-2.15.55-3.02.54-.52 0-.97.06-1.36.19-.58.18-1.03.54-1.29.97s-.35.91-.37 1.36l.59.03-.5-.31.5.31z"/><path d="M13.96 12.38l3.56 1.78c.29.15.65.03.8-.27.15-.29.03-.65-.27-.8l-3.56-1.78c-.29-.15-.65-.03-.8.27-.15.29-.03.65.27.8m-1.19 1.78l3.56 1.78c.29.15.65.03.8-.27.15-.29.03-.65-.27-.8l-3.56-1.78c-.29-.15-.65-.03-.8.27-.15.29-.03.65.27.8M.59 16H0a16 16 0 1 0 32 0 16 16 0 1 0-32 0h1.19A14.8 14.8 0 0 1 5.53 5.52c2.68-2.68 6.38-4.34 10.48-4.34a14.8 14.8 0 0 1 10.48 4.34C29.17 8.2 30.83 11.9 30.83 16a14.8 14.8 0 0 1-4.34 10.48c-2.68 2.68-6.38 4.34-10.48 4.34a14.8 14.8 0 0 1-10.48-4.34C2.85 23.8 1.19 20.1 1.19 16H.6z"/></svg>