<svg width="581" height="309" viewBox="0 0 581 309" fill="none" xmlns="http://www.w3.org/2000/svg">
<path d="M87.248 42.44H100.784V45.944H99.536V43.56H88.432V45.944H87.248V42.44ZM90.96 45.576H98.432V46.632H90.96V45.576ZM90.416 48.568H97.344V49.64H90.416V48.568ZM86.864 51.528H101.168V52.648H86.864V51.528ZM97.04 48.568H98.24C98.24 48.568 98.208 48.936 98.192 49.112C97.808 53.432 97.424 55.128 96.784 55.768C96.4 56.136 96.032 56.248 95.424 56.28C94.896 56.312 93.856 56.296 92.816 56.232C92.784 55.896 92.624 55.416 92.416 55.096C93.52 55.208 94.624 55.208 95.024 55.208C95.392 55.208 95.584 55.192 95.776 55.032C96.32 54.568 96.688 52.856 97.024 48.76L97.04 48.568ZM90.784 43.672L91.984 43.8C91.6 45.864 91.008 48.568 90.576 50.168L89.36 50.056C89.824 48.424 90.432 45.688 90.784 43.672ZM111.472 54.344L112.256 53.576C114.048 54.184 116 54.952 117.2 55.512L116.192 56.312C115.088 55.752 113.28 54.984 111.472 54.344ZM102.896 52.264H117.104V53.288H102.896V52.264ZM103.36 42.904H116.704V43.944H103.36V42.904ZM109.328 41.56H110.592V45.48H109.328V41.56ZM106.464 47.624V48.696H113.776V47.624H106.464ZM106.464 49.448V50.536H113.776V49.448H106.464ZM106.464 45.8V46.84H113.776V45.8H106.464ZM105.312 45H114.992V51.336H105.312V45ZM107.52 53.592L108.592 54.28C107.312 55.08 105.312 55.88 103.712 56.312C103.536 56.072 103.152 55.704 102.896 55.48C104.512 55.048 106.512 54.28 107.52 53.592ZM125.36 42.36C125.216 42.984 125.04 43.864 124.624 44.936C124.224 45.912 123.632 46.984 122.992 47.816C123.616 47.448 124.528 47.224 125.232 47.224C126.464 47.224 127.424 47.96 127.424 49.256C127.424 50.088 127.456 51.928 127.472 52.92H126.24C126.304 52.072 126.32 50.424 126.304 49.592C126.288 48.664 125.648 48.232 124.816 48.232C123.792 48.232 122.784 48.744 122.048 49.4C121.584 49.848 121.136 50.424 120.608 51.08L119.504 50.264C121.808 48.056 122.88 46.2 123.424 44.84C123.776 43.96 124 43 124.048 42.248L125.36 42.36ZM119.872 44.088C120.736 44.2 121.84 44.248 122.576 44.248C124.736 44.248 127.504 44.12 129.76 43.72V44.904C127.52 45.24 124.544 45.384 122.512 45.384C121.824 45.384 120.768 45.352 119.872 45.288V44.088ZM132.096 47.944C131.696 48.072 131.12 48.296 130.688 48.456C129.552 48.904 128.032 49.512 126.48 50.312C124.896 51.144 123.776 52.008 123.776 53.112C123.776 54.36 125.008 54.552 126.656 54.552C127.904 54.552 129.632 54.408 131.04 54.152L130.992 55.448C129.776 55.592 128 55.72 126.608 55.72C124.336 55.72 122.496 55.224 122.496 53.288C122.496 51.336 124.48 50.136 126.384 49.16C127.904 48.376 129.2 47.88 130.256 47.384C130.736 47.16 131.136 46.984 131.584 46.76L132.096 47.944ZM138.176 47.88V53.544H137.008V49H134.768V47.88H138.176ZM138.176 53.016C138.928 54.2 140.352 54.744 142.192 54.824C143.936 54.888 147.536 54.84 149.424 54.712C149.296 55 149.088 55.576 149.04 55.944C147.28 56.008 143.968 56.04 142.192 55.976C140.112 55.896 138.672 55.336 137.648 54.072C136.88 54.76 136.064 55.448 135.2 56.152L134.56 54.92C135.328 54.408 136.272 53.704 137.088 53.016H138.176ZM134.944 42.68L135.824 41.96C136.88 42.632 138.08 43.672 138.64 44.456L137.696 45.24C137.184 44.472 135.984 43.384 134.944 42.68ZM140.544 43.24H147.648V47.432H140.544V46.408H146.48V44.248H140.544V43.24ZM143.152 41.512L144.528 41.736C144.224 42.52 143.872 43.336 143.6 43.88L142.496 43.64C142.736 43.032 143.024 42.136 143.152 41.512ZM139.968 43.24H141.136V53.512H139.968V43.24ZM140.608 48.952H148.288V53.512H140.608V52.472H147.104V49.976H140.608V48.952ZM159.68 53.704H164.032V54.872H159.68V53.704ZM150.848 44.6H156.992V45.768H150.848V44.6ZM159.136 43.56H164.608V55.928H163.392V44.712H160.304V56.04H159.136V43.56ZM156.672 44.6H157.84C157.84 44.6 157.84 45.048 157.84 45.208C157.712 52.328 157.6 54.664 157.088 55.368C156.8 55.784 156.512 55.928 156.032 55.976C155.584 56.04 154.848 56.04 154.128 55.992C154.112 55.64 153.984 55.112 153.776 54.776C154.528 54.84 155.216 54.84 155.52 54.84C155.76 54.856 155.904 54.808 156.048 54.6C156.416 54.104 156.56 51.736 156.672 44.888V44.6ZM153.12 41.784H154.288C154.272 47.688 154.192 53.24 151.376 56.296C151.168 56.024 150.752 55.656 150.448 55.48C153.12 52.664 153.104 47.384 153.12 41.784Z" fill="#374151"/>
<path d="M86.7045 91.875V90.3636H95.7102V91.875H92.0795V102H90.3295V91.875H86.7045ZM99.9744 102.176C99.1563 102.176 98.4422 101.989 97.8324 101.614C97.2225 101.239 96.7491 100.714 96.4119 100.04C96.0748 99.3655 95.9062 98.5777 95.9062 97.6761C95.9062 96.7708 96.0748 95.9792 96.4119 95.3011C96.7491 94.6231 97.2225 94.0966 97.8324 93.7216C98.4422 93.3466 99.1563 93.1591 99.9744 93.1591C100.793 93.1591 101.507 93.3466 102.116 93.7216C102.726 94.0966 103.2 94.6231 103.537 95.3011C103.874 95.9792 104.043 96.7708 104.043 97.6761C104.043 98.5777 103.874 99.3655 103.537 100.04C103.2 100.714 102.726 101.239 102.116 101.614C101.507 101.989 100.793 102.176 99.9744 102.176ZM99.9801 100.75C100.51 100.75 100.95 100.61 101.298 100.33C101.647 100.049 101.904 99.6761 102.071 99.2102C102.241 98.7443 102.327 98.2311 102.327 97.6705C102.327 97.1136 102.241 96.6023 102.071 96.1364C101.904 95.6667 101.647 95.2898 101.298 95.0057C100.95 94.7216 100.51 94.5795 99.9801 94.5795C99.446 94.5795 99.0028 94.7216 98.6506 95.0057C98.3021 95.2898 98.0426 95.6667 97.8722 96.1364C97.7055 96.6023 97.6222 97.1136 97.6222 97.6705C97.6222 98.2311 97.7055 98.7443 97.8722 99.2102C98.0426 99.6761 98.3021 100.049 98.6506 100.33C99.0028 100.61 99.446 100.75 99.9801 100.75ZM109.206 102.17C108.501 102.17 107.873 101.991 107.32 101.631C106.77 101.267 106.339 100.75 106.024 100.08C105.714 99.4053 105.558 98.5966 105.558 97.6534C105.558 96.7102 105.715 95.9034 106.03 95.233C106.348 94.5625 106.784 94.0492 107.337 93.6932C107.89 93.3371 108.517 93.1591 109.217 93.1591C109.759 93.1591 110.195 93.25 110.524 93.4318C110.857 93.6098 111.115 93.8182 111.297 94.0568C111.482 94.2955 111.626 94.5057 111.729 94.6875H111.831V90.3636H113.53V102H111.871V100.642H111.729C111.626 100.828 111.479 101.04 111.286 101.278C111.096 101.517 110.835 101.725 110.501 101.903C110.168 102.081 109.736 102.17 109.206 102.17ZM109.581 100.722C110.07 100.722 110.482 100.593 110.82 100.335C111.161 100.074 111.418 99.7121 111.592 99.25C111.77 98.7879 111.859 98.25 111.859 97.6364C111.859 97.0303 111.772 96.5 111.598 96.0455C111.424 95.5909 111.168 95.2367 110.831 94.983C110.494 94.7292 110.077 94.6023 109.581 94.6023C109.07 94.6023 108.643 94.7348 108.303 95C107.962 95.2652 107.704 95.6269 107.53 96.0852C107.359 96.5436 107.274 97.0606 107.274 97.6364C107.274 98.2197 107.361 98.7443 107.536 99.2102C107.71 99.6761 107.967 100.045 108.308 100.318C108.653 100.587 109.077 100.722 109.581 100.722ZM119.631 102.176C118.813 102.176 118.098 101.989 117.489 101.614C116.879 101.239 116.405 100.714 116.068 100.04C115.731 99.3655 115.562 98.5777 115.562 97.6761C115.562 96.7708 115.731 95.9792 116.068 95.3011C116.405 94.6231 116.879 94.0966 117.489 93.7216C118.098 93.3466 118.813 93.1591 119.631 93.1591C120.449 93.1591 121.163 93.3466 121.773 93.7216C122.383 94.0966 122.856 94.6231 123.193 95.3011C123.53 95.9792 123.699 96.7708 123.699 97.6761C123.699 98.5777 123.53 99.3655 123.193 100.04C122.856 100.714 122.383 101.239 121.773 101.614C121.163 101.989 120.449 102.176 119.631 102.176ZM119.636 100.75C120.167 100.75 120.606 100.61 120.955 100.33C121.303 100.049 121.561 99.6761 121.727 99.2102C121.898 98.7443 121.983 98.2311 121.983 97.6705C121.983 97.1136 121.898 96.6023 121.727 96.1364C121.561 95.6667 121.303 95.2898 120.955 95.0057C120.606 94.7216 120.167 94.5795 119.636 94.5795C119.102 94.5795 118.659 94.7216 118.307 95.0057C117.958 95.2898 117.699 95.6667 117.528 96.1364C117.362 96.6023 117.278 97.1136 117.278 97.6705C117.278 98.2311 117.362 98.7443 117.528 99.2102C117.699 99.6761 117.958 100.049 118.307 100.33C118.659 100.61 119.102 100.75 119.636 100.75ZM131.813 89.36C131.669 89.984 131.493 90.864 131.077 91.936C130.677 92.912 130.085 93.984 129.445 94.816C130.069 94.448 130.981 94.224 131.685 94.224C132.917 94.224 133.877 94.96 133.877 96.256C133.877 97.088 133.909 98.928 133.925 99.92H132.693C132.757 99.072 132.773 97.424 132.757 96.592C132.741 95.664 132.101 95.232 131.269 95.232C130.245 95.232 129.237 95.744 128.501 96.4C128.037 96.848 127.589 97.424 127.061 98.08L125.957 97.264C128.261 95.056 129.333 93.2 129.877 91.84C130.229 90.96 130.453 90 130.501 89.248L131.813 89.36ZM126.325 91.088C127.189 91.2 128.293 91.248 129.029 91.248C131.189 91.248 133.957 91.12 136.213 90.72V91.904C133.973 92.24 130.997 92.384 128.965 92.384C128.277 92.384 127.221 92.352 126.325 92.288V91.088ZM138.549 94.944C138.149 95.072 137.573 95.296 137.141 95.456C136.005 95.904 134.485 96.512 132.933 97.312C131.349 98.144 130.229 99.008 130.229 100.112C130.229 101.36 131.461 101.552 133.109 101.552C134.357 101.552 136.085 101.408 137.493 101.152L137.445 102.448C136.229 102.592 134.453 102.72 133.061 102.72C130.789 102.72 128.949 102.224 128.949 100.288C128.949 98.336 130.933 97.136 132.837 96.16C134.357 95.376 135.653 94.88 136.709 94.384C137.189 94.16 137.589 93.984 138.037 93.76L138.549 94.944ZM150.293 96.768H151.109V103.136H150.293V96.768ZM152.341 96.768H153.173V103.136H152.341V96.768ZM146.709 89.536H155.525V90.592H146.709V89.536ZM148.645 99.248H155.029V100.16H148.645V99.248ZM147.333 91.648H148.421V95.184C148.421 97.488 148.149 100.816 146.501 103.056C146.325 102.848 145.861 102.512 145.621 102.384C147.173 100.272 147.333 97.328 147.333 95.168V91.648ZM147.813 91.648H155.125V95.36H147.813V94.368H153.973V92.64H147.813V91.648ZM148.197 96.448H155.093V97.392H149.093V103.296H148.197V96.448ZM154.453 96.448H155.461V102.144C155.461 102.624 155.397 102.912 155.093 103.104C154.805 103.248 154.389 103.28 153.781 103.28C153.749 102.992 153.589 102.576 153.461 102.288C153.861 102.304 154.181 102.304 154.309 102.304C154.421 102.304 154.453 102.272 154.453 102.128V96.448ZM143.589 88.576L144.613 88.96C144.037 90.144 143.285 91.584 142.693 92.48L141.893 92.128C142.453 91.2 143.189 89.632 143.589 88.576ZM145.285 90.4L146.277 90.848C145.221 92.624 143.749 94.896 142.597 96.272L141.877 95.888C143.013 94.464 144.453 92.08 145.285 90.4ZM141.029 91.888L141.669 91.12C142.517 91.904 143.493 92.992 143.909 93.712L143.237 94.592C142.837 93.824 141.877 92.688 141.029 91.888ZM144.677 94.016L145.525 93.696C146.133 94.752 146.725 96.16 146.885 97.056L145.989 97.44C145.813 96.544 145.269 95.104 144.677 94.016ZM140.901 95.648C142.229 95.584 144.133 95.488 146.053 95.376V96.4C144.245 96.512 142.421 96.624 141.029 96.72L140.901 95.648ZM144.981 97.904L145.829 97.664C146.213 98.576 146.549 99.792 146.629 100.576L145.733 100.848C145.653 100.048 145.349 98.832 144.981 97.904ZM141.861 97.712L142.853 97.888C142.645 99.392 142.261 100.944 141.765 101.968C141.573 101.824 141.109 101.616 140.869 101.52C141.381 100.544 141.685 99.104 141.861 97.712ZM143.477 96.112H144.517V103.28H143.477V96.112ZM157.301 98.352H171.605V99.36H157.301V98.352ZM159.989 92.512H169.893V93.36H159.989V92.512ZM159.989 94.432H169.941V95.296H159.989V94.432ZM159.797 90.464H170.549V91.456H159.797V90.464ZM164.117 91.024H165.285V96.768H164.117V91.024ZM163.813 97.072H165.013V103.28H163.813V97.072ZM163.557 98.72L164.485 99.2C162.901 100.864 160.053 102.384 157.701 103.12C157.525 102.8 157.173 102.352 156.901 102.112C159.285 101.504 162.101 100.16 163.557 98.72ZM165.285 98.72C166.725 100.128 169.525 101.408 171.925 102C171.669 102.24 171.333 102.688 171.157 102.992C168.773 102.288 165.941 100.816 164.357 99.2L165.285 98.72ZM164.869 88.56L166.213 88.752C165.765 89.6 165.269 90.496 164.853 91.104L163.797 90.88C164.181 90.24 164.645 89.248 164.869 88.56ZM160.693 88.544L161.941 88.768C160.997 90.528 159.653 92.48 157.749 94.08C157.541 93.808 157.141 93.44 156.869 93.28C158.661 91.872 159.973 90 160.693 88.544ZM159.237 91.12H160.389V96.4H171.173V97.36H159.237V91.12ZM177.893 89.536C177.813 90.064 177.765 90.624 177.733 91.152C177.669 92.96 177.541 96.752 177.541 99.136C177.541 100.896 178.645 101.504 180.165 101.504C183.093 101.504 184.757 99.872 185.909 98.208L186.805 99.296C185.717 100.816 183.637 102.816 180.133 102.816C177.829 102.816 176.245 101.872 176.245 99.248C176.245 96.88 176.405 92.832 176.405 91.152C176.405 90.56 176.357 90 176.261 89.536H177.893ZM189.313 91.376C189.921 91.36 190.433 91.328 190.753 91.296C191.793 91.184 194.801 90.896 197.761 90.64C199.505 90.496 200.993 90.4 202.065 90.368L202.081 91.648C201.153 91.632 199.761 91.664 198.945 91.888C196.657 92.624 195.265 95.072 195.265 96.96C195.265 100.08 198.193 101.072 200.785 101.184L200.337 102.496C197.361 102.384 194.001 100.816 194.001 97.232C194.001 94.736 195.521 92.704 196.993 91.84C195.265 92.016 191.201 92.416 189.457 92.784L189.313 91.376ZM216.097 90.848C216.097 91.424 216.577 91.904 217.153 91.904C217.729 91.904 218.225 91.424 218.225 90.848C218.225 90.272 217.729 89.792 217.153 89.792C216.577 89.792 216.097 90.272 216.097 90.848ZM215.361 90.848C215.361 89.856 216.161 89.056 217.153 89.056C218.145 89.056 218.961 89.856 218.961 90.848C218.961 91.84 218.145 92.64 217.153 92.64C216.161 92.64 215.361 91.84 215.361 90.848ZM208.433 90C208.385 90.384 208.337 90.848 208.337 91.296C208.337 92.16 208.337 98.592 208.337 99.744C208.337 100.576 208.689 100.784 209.457 100.928C209.969 101.024 210.785 101.056 211.569 101.056C213.265 101.056 215.713 100.896 217.057 100.544V102.016C215.665 102.224 213.265 102.336 211.521 102.336C210.561 102.336 209.617 102.304 208.945 102.192C207.729 101.968 207.041 101.408 207.041 100.096C207.041 98.56 207.041 92.16 207.041 91.296C207.041 90.912 207.009 90.384 206.945 90H208.433ZM207.745 95.056C209.681 94.64 212.577 93.76 214.433 92.976C214.913 92.752 215.377 92.528 215.841 92.24L216.401 93.52C215.937 93.712 215.361 93.968 214.881 94.16C212.897 94.96 209.729 95.888 207.761 96.384L207.745 95.056ZM223.601 90.288C224.721 91.04 226.785 92.704 227.665 93.584L226.673 94.608C225.857 93.776 223.873 92.048 222.673 91.264L223.601 90.288ZM222.225 101.008C225.009 100.592 227.089 99.616 228.609 98.672C231.089 97.12 233.025 94.752 233.953 92.768L234.721 94.144C233.633 96.128 231.777 98.304 229.361 99.824C227.745 100.832 225.729 101.824 223.057 102.32L222.225 101.008ZM244.577 93.936H250.433V95.136H244.577V93.936ZM236.737 101.296H251.153V102.48H236.737V101.296ZM243.937 88.608H245.201V101.904H243.937V88.608ZM238.961 92.096H240.193V101.856H238.961V92.096ZM262.673 89.616C262.561 90.016 262.465 90.576 262.385 90.88C261.809 93.52 260.689 96.864 259.409 98.624C258.193 100.32 257.025 101.52 255.569 101.52C254.353 101.52 253.329 100.512 253.329 98.64C253.329 96.624 254.561 94.496 256.257 93.36C257.841 92.288 259.409 91.872 261.057 91.872C264.193 91.872 266.465 93.984 266.465 97.104C266.465 100.304 264.177 102.24 260.737 102.72L260.001 101.584C263.345 101.28 265.185 99.536 265.185 97.056C265.185 94.704 263.489 92.976 260.913 92.976C259.361 92.976 257.969 93.504 256.721 94.432C255.361 95.408 254.497 97.12 254.497 98.56C254.497 99.616 254.961 100.256 255.681 100.256C256.721 100.256 257.841 98.896 258.657 97.6C259.713 95.968 260.785 93.04 261.185 90.704C261.249 90.384 261.297 89.856 261.281 89.488L262.673 89.616ZM256.113 90.352C256.193 90.784 256.321 91.312 256.449 91.76C256.865 93.328 257.761 95.792 258.433 96.912C258.977 97.84 259.729 98.896 260.497 99.632L259.489 100.448C258.849 99.744 258.257 98.96 257.649 97.92C256.865 96.672 255.937 94.224 255.329 92.224C255.169 91.712 254.993 91.184 254.785 90.768L256.113 90.352Z" fill="#374151"/>
<path d="M92.56 140.232C92.512 140.52 92.48 140.952 92.464 141.336C92.416 142.28 92.336 144.728 92.336 146.392C92.336 148.056 92.416 150.552 92.416 151.56C92.416 153.032 91.872 153.512 90.992 153.512C89.744 153.512 87.664 152.296 87.664 150.856C87.664 149.448 89.568 147.96 91.552 147.208C92.976 146.648 94.576 146.36 95.84 146.36C98.192 146.36 99.872 147.624 99.872 149.544C99.872 151.48 98.656 152.712 96.448 153.224C95.744 153.384 95.024 153.416 94.464 153.448L94.016 152.168C94.624 152.168 95.296 152.184 95.904 152.056C97.296 151.784 98.576 151.032 98.576 149.544C98.576 148.184 97.344 147.464 95.84 147.464C94.4 147.464 93.088 147.768 91.728 148.312C90.16 148.92 88.928 149.992 88.928 150.808C88.928 151.528 90.048 152.168 90.672 152.168C91.04 152.168 91.248 151.912 91.248 151.384C91.248 150.456 91.168 148.232 91.168 146.456C91.168 144.616 91.232 142.008 91.232 141.352C91.232 141.048 91.2 140.488 91.152 140.232H92.56ZM97.536 142.008C98.672 142.6 100.416 143.688 101.184 144.328L100.544 145.352C99.76 144.616 97.968 143.512 96.944 142.968L97.536 142.008ZM87.936 143.096C88.816 143.208 89.392 143.224 89.968 143.224C91.552 143.224 94.096 142.888 95.68 142.408L95.712 143.656C94.064 144.056 91.44 144.408 90 144.408C89.104 144.408 88.496 144.376 87.968 144.328L87.936 143.096ZM111.248 151.416H115.984V152.552H111.248V151.416ZM110.752 140.952H116.512V153.656H115.312V142.088H111.904V153.832H110.752V140.952ZM106.016 142.264H107.232V145.48C107.232 148.2 106.688 151.88 103.376 154.248C103.216 153.992 102.784 153.528 102.528 153.352C105.648 151.128 106.016 147.944 106.016 145.464V142.264ZM104.368 141.72H109.76V142.84H104.368V141.72ZM102.704 146.024H110.24V147.176H102.704V146.024ZM106.848 148.136C107.472 148.696 109.664 151.16 110.176 151.768L109.36 152.776C108.688 151.8 106.848 149.608 106.112 148.824L106.848 148.136ZM104.512 139.56L105.68 139.784C105.216 141.928 104.448 143.992 103.504 145.352C103.296 145.16 102.784 144.824 102.512 144.664C103.472 143.432 104.128 141.512 104.512 139.56ZM123.344 140.456C124.72 140.904 128.128 141.56 129.552 141.704L129.248 142.92C127.712 142.712 124.256 142.008 123.024 141.688L123.344 140.456ZM122.992 143.384C122.784 144.472 122.496 146.84 122.336 147.88C123.872 146.536 125.632 145.912 127.552 145.912C130 145.912 131.632 147.384 131.632 149.272C131.632 152.12 129.088 154.056 123.152 153.56L122.768 152.264C127.824 152.872 130.288 151.416 130.288 149.224C130.288 147.96 129.088 147.048 127.456 147.048C125.36 147.048 123.632 147.832 122.512 149.192C122.272 149.464 122.128 149.72 122.032 149.976L120.832 149.688C121.152 148.232 121.552 144.872 121.648 143.208L122.992 143.384ZM145.512 140.664C145.48 140.936 145.448 141.48 145.448 141.832C145.432 142.824 145.432 143.944 145.4 144.76C145.368 145.992 145.32 147.72 145.16 148.552C145.016 149.272 144.648 149.48 143.928 149.48C143.336 149.48 142.232 149.336 141.816 149.256L141.832 148.136C142.392 148.264 143.064 148.344 143.432 148.344C143.832 148.344 143.992 148.28 144.056 147.912C144.152 147.304 144.216 145.912 144.232 144.776C144.248 143.88 144.248 142.76 144.248 141.88C144.248 141.512 144.2 140.952 144.152 140.664H145.512ZM139.192 141.176C139.144 141.544 139.128 141.976 139.128 142.472C139.112 144.2 139.064 148.6 139.096 149.704C139.16 151.432 139.176 152.04 141.944 152.04C143.688 152.04 145.672 151.864 146.712 151.672L146.664 153.016C145.592 153.128 143.64 153.288 142.008 153.288C138.312 153.288 137.96 152.424 137.896 149.88C137.864 148.536 137.88 143.256 137.88 142.52C137.88 142.04 137.864 141.656 137.784 141.176H139.192ZM134.408 145C134.904 145 135.496 144.968 136.072 144.904C137.799 144.76 143.896 144.12 147.176 143.944C147.592 143.928 148.056 143.896 148.424 143.864V145.128C148.184 145.112 147.576 145.128 147.176 145.128C144.616 145.176 138.184 145.848 136.152 146.088C135.672 146.152 134.984 146.248 134.536 146.312L134.408 145ZM153.816 145.88V151.544H152.68V147H150.344V145.88H153.816ZM153.816 151.064C154.6 152.248 155.976 152.792 157.864 152.856C159.624 152.936 163.32 152.888 165.24 152.76C165.096 153.032 164.92 153.592 164.856 153.944C163.08 154.024 159.656 154.056 157.864 153.976C155.768 153.896 154.312 153.336 153.32 152.072C152.504 152.76 151.64 153.464 150.728 154.152L150.136 152.968C150.936 152.472 151.928 151.752 152.776 151.064H153.816ZM150.616 140.68L151.448 139.928C152.472 140.648 153.672 141.736 154.2 142.52L153.288 143.352C152.792 142.568 151.624 141.432 150.616 140.68ZM157.016 142.248L157.784 141.576C159.288 142.104 161.304 142.984 162.376 143.624L161.56 144.376C160.552 143.752 158.568 142.84 157.016 142.248ZM155.496 143.592H163.768V144.52H156.632V151.88H155.496V143.592ZM163.192 143.592H164.344V150.68C164.344 151.272 164.232 151.544 163.8 151.72C163.384 151.912 162.712 151.912 161.64 151.912C161.592 151.608 161.448 151.192 161.304 150.92C162.056 150.952 162.728 150.936 162.936 150.936C163.144 150.936 163.192 150.872 163.192 150.664V143.592ZM155.496 140.232H163.48V141.192H155.496V140.232ZM156.12 145.928H163.656V146.824H156.12V145.928ZM156.12 148.28H163.656V149.208H156.12V148.28ZM159.32 143.976H160.408V151.816H159.32V143.976ZM163.08 140.232H163.352L163.608 140.168L164.344 140.744C163.272 141.752 161.656 142.744 160.2 143.352C160.04 143.144 159.736 142.824 159.56 142.648C160.872 142.136 162.36 141.208 163.08 140.456V140.232ZM174.936 151.416H179.672V152.552H174.936V151.416ZM174.44 140.952H180.2V153.656H179V142.088H175.592V153.832H174.44V140.952ZM169.704 142.264H170.92V145.48C170.92 148.2 170.376 151.88 167.064 154.248C166.904 153.992 166.472 153.528 166.215 153.352C169.336 151.128 169.704 147.944 169.704 145.464V142.264ZM168.056 141.72H173.448V142.84H168.056V141.72ZM166.392 146.024H173.928V147.176H166.392V146.024ZM170.536 148.136C171.16 148.696 173.352 151.16 173.864 151.768L173.048 152.776C172.376 151.8 170.536 149.608 169.799 148.824L170.536 148.136ZM168.2 139.56L169.368 139.784C168.904 141.928 168.136 143.992 167.192 145.352C166.984 145.16 166.472 144.824 166.2 144.664C167.16 143.432 167.816 141.512 168.2 139.56ZM189.048 140.36C188.904 140.984 188.728 141.864 188.312 142.936C187.912 143.912 187.32 144.984 186.68 145.816C187.304 145.448 188.216 145.224 188.92 145.224C190.152 145.224 191.112 145.96 191.112 147.256C191.112 148.088 191.144 149.928 191.16 150.92H189.928C189.992 150.072 190.008 148.424 189.992 147.592C189.976 146.664 189.336 146.232 188.504 146.232C187.48 146.232 186.472 146.744 185.736 147.4C185.272 147.848 184.824 148.424 184.296 149.08L183.192 148.264C185.496 146.056 186.568 144.2 187.112 142.84C187.464 141.96 187.688 141 187.736 140.248L189.048 140.36ZM183.56 142.088C184.424 142.2 185.528 142.248 186.264 142.248C188.424 142.248 191.192 142.12 193.448 141.72V142.904C191.208 143.24 188.232 143.384 186.2 143.384C185.512 143.384 184.456 143.352 183.56 143.288V142.088ZM195.784 145.944C195.384 146.072 194.808 146.296 194.376 146.456C193.24 146.904 191.72 147.512 190.168 148.312C188.584 149.144 187.464 150.008 187.464 151.112C187.464 152.36 188.696 152.552 190.344 152.552C191.592 152.552 193.32 152.408 194.728 152.152L194.68 153.448C193.464 153.592 191.688 153.72 190.296 153.72C188.024 153.72 186.184 153.224 186.184 151.288C186.184 149.336 188.168 148.136 190.072 147.16C191.592 146.376 192.888 145.88 193.944 145.384C194.424 145.16 194.824 144.984 195.272 144.76L195.784 145.944ZM208.232 140.488C208.168 140.92 208.136 141.384 208.152 141.816C208.168 143.592 208.28 149.176 208.296 152.168C208.312 153.016 207.8 153.464 206.84 153.464C206.024 153.464 205.08 153.416 204.28 153.368L204.168 152.04C204.936 152.168 205.832 152.232 206.44 152.232C206.888 152.232 207.032 152.024 207.032 151.592C207.032 149.304 206.968 143.592 206.888 141.816C206.856 141.208 206.824 140.824 206.76 140.488H208.232ZM199.64 143.288C200.104 143.336 200.632 143.368 201.112 143.368C201.96 143.368 209.88 143.368 210.696 143.368C211.112 143.368 211.736 143.32 212.056 143.272V144.632C211.672 144.616 211.128 144.584 210.728 144.584C210.024 144.584 201.864 144.584 201.144 144.584C200.6 144.584 200.152 144.616 199.64 144.648V143.288ZM199.064 150.76C202.44 149.096 205.4 146.296 206.584 144.344H207.224L207.24 145.416C206.024 147.32 203.048 150.168 199.976 151.8L199.064 150.76ZM227.464 142.376C227.352 142.6 227.288 142.856 227.224 143.176C226.872 144.856 226.104 147.432 224.824 149.08C223.368 150.952 221.464 152.44 218.536 153.352L217.448 152.152C220.552 151.384 222.344 150.024 223.688 148.312C224.824 146.856 225.56 144.632 225.784 143.096C224.856 143.096 218.52 143.096 217.592 143.096C216.952 143.096 216.408 143.128 216.008 143.144V141.72C216.44 141.784 217.08 141.832 217.608 141.832C218.52 141.832 224.904 141.832 225.624 141.832C225.864 141.832 226.184 141.816 226.488 141.752L227.464 142.376Z" fill="#374151"/>
<path d="M93.92 194.728C92.624 196.696 90.016 199.176 87.312 200.84C87.152 200.552 86.816 200.136 86.544 199.896C89.312 198.28 92.016 195.64 93.248 193.528H94.448C96.128 195.912 98.976 198.376 101.488 199.72C101.184 199.992 100.896 200.392 100.672 200.744C98.192 199.256 95.376 196.76 93.92 194.728ZM90.48 198.616H97.488V199.752H90.48V198.616ZM88.416 201.768H98.144V202.904H88.416V201.768ZM97.904 201.768H98.08L98.288 201.688L99.232 201.992C98.48 203.768 97.232 206.36 96.24 208.344L94.976 208.008C96.016 206.04 97.296 203.32 97.904 201.912V201.768ZM105.824 199.88V205.544H104.688V201H102.72V199.88H105.824ZM105.824 205.064C106.576 206.264 108 206.808 109.904 206.888C111.712 206.968 115.472 206.92 117.44 206.792C117.296 207.048 117.104 207.592 117.056 207.928C115.232 208.008 111.744 208.04 109.92 207.976C107.792 207.896 106.336 207.32 105.328 206.056C104.64 206.744 103.92 207.432 103.152 208.152L102.528 207.016C103.216 206.488 104.064 205.768 104.8 205.064H105.824ZM102.8 194.536L103.728 193.944C104.672 194.696 105.744 195.8 106.192 196.616L105.184 197.288C104.768 196.488 103.728 195.336 102.8 194.536ZM108.272 194.184H115.776V195.192H108.272V194.184ZM109.472 196.648H114.48V197.528H109.472V196.648ZM109.328 198.824H114.624V199.704H109.328V198.824ZM111.376 195.512H112.4V199.32H111.376V195.512ZM107.632 194.184H108.736V198.344C108.736 200.568 108.528 203.704 107.2 205.848C106.992 205.64 106.512 205.336 106.256 205.224C107.504 203.208 107.632 200.392 107.632 198.344V194.184ZM115.248 194.184H116.352V204.712C116.352 205.336 116.208 205.64 115.792 205.832C115.376 206.008 114.688 206.024 113.536 206.024C113.504 205.72 113.344 205.272 113.2 204.984C114 205 114.736 205 114.944 205C115.168 204.984 115.248 204.92 115.248 204.696V194.184ZM110.224 200.6H114.064V204.12H110.224V203.256H113.104V201.464H110.224V200.6ZM109.76 200.6H110.72V204.936H109.76V200.6ZM127.008 196.088C126.8 197.752 126.48 199.624 125.984 201.336C125.008 204.616 123.728 206.312 122.256 206.312C120.816 206.312 119.392 204.68 119.392 202.024C119.392 198.552 122.48 195.528 126.4 195.528C130.144 195.528 132.528 198.168 132.528 201.416C132.528 204.76 130.32 207 126.512 207.496L125.776 206.312C126.288 206.264 126.768 206.2 127.152 206.12C129.2 205.656 131.216 204.12 131.216 201.352C131.216 198.792 129.44 196.68 126.368 196.68C122.848 196.68 120.656 199.576 120.656 201.928C120.656 203.944 121.568 204.84 122.288 204.84C123.04 204.84 123.904 203.752 124.72 201.048C125.184 199.528 125.52 197.72 125.68 196.056L127.008 196.088ZM141.44 194.424L142.224 193.528C143.536 194.2 145.168 195.256 145.952 196.04L145.104 197.048C144.368 196.248 142.768 195.128 141.44 194.424ZM139.984 201.608H148.448V202.76H139.984V201.608ZM138.848 206.648H149.376V207.8H138.848V206.648ZM139.392 197.016H149.04V198.168H139.392V197.016ZM143.504 197.432H144.736V207.176H143.504V197.432ZM135.536 194.568L136.192 193.688C137.248 194.088 138.592 194.808 139.248 195.368L138.544 196.376C137.904 195.784 136.608 195.032 135.536 194.568ZM134.608 198.936L135.232 198.024C136.304 198.376 137.68 199 138.368 199.512L137.728 200.536C137.056 200.008 135.696 199.336 134.608 198.936ZM135.2 207.256C136.064 206.04 137.328 203.928 138.256 202.104L139.12 202.888C138.272 204.584 137.152 206.584 136.208 208.072L135.2 207.256ZM153.344 198.344H162.608V199.48H153.344V198.344ZM153.344 202.136H162.608V203.272H153.344V202.136ZM153.344 205.944H162.608V207.112H153.344V205.944ZM152.512 194.552H163.376V208.2H162.128V195.736H153.712V208.2H152.512V194.552ZM174.416 199.688H179.936V200.824H174.416V199.688ZM173.888 199.688H175.088V206.216C175.088 206.84 175.264 206.968 176.144 206.968C176.56 206.968 178.64 206.968 179.184 206.968C180.048 206.968 180.176 206.552 180.272 204.328C180.56 204.536 181.072 204.744 181.408 204.824C181.232 207.4 180.864 208.12 179.264 208.12C178.864 208.12 176.416 208.12 176.048 208.12C174.384 208.12 173.888 207.736 173.888 206.2V199.688ZM173.712 194.472H180.56V201.72H179.344V195.608H173.712V194.472ZM167.36 198.408H172.352V199.368H167.36V198.408ZM167.456 194.136H172.416V195.096H167.456V194.136ZM167.36 200.552H172.352V201.512H167.36V200.552ZM166.608 196.232H172.976V197.224H166.608V196.232ZM167.92 202.712H172.304V207.384H167.92V206.376H171.232V203.704H167.92V202.712ZM167.344 202.712H168.416V208.12H167.344V202.712ZM189.328 193.56H190.544V206.936C190.544 207.688 190.336 207.976 189.84 208.152C189.328 208.312 188.496 208.328 187.152 208.328C187.088 208.04 186.896 207.592 186.736 207.32C187.696 207.352 188.656 207.336 188.944 207.336C189.232 207.32 189.328 207.224 189.328 206.936V193.56ZM183.072 194.84H196.96V195.832H183.072V194.84ZM185.888 197.624V198.776H194.144V197.624H185.888ZM184.752 196.792H195.36V199.624H184.752V196.792ZM184.288 200.744H195.6V206.568H194.4V201.64H184.288V200.744ZM182.768 202.744H197.264V203.704H182.768V202.744ZM184.128 204.92H195.024V205.848H184.128V204.92Z" fill="#374151"/>
<path d="M93.632 248.2H94.768V249.832C94.768 251.24 94.368 253 92.592 254.168C92.432 253.928 92.016 253.464 91.776 253.304C93.376 252.296 93.632 250.92 93.632 249.816V248.2ZM94.224 248.2H98.32V249.32H94.224V248.2ZM97.776 248.2H98.928V252.056C98.928 252.408 98.976 252.456 99.264 252.456C99.392 252.456 99.968 252.456 100.144 252.456C100.432 252.456 100.496 252.232 100.528 250.568C100.768 250.776 101.232 250.936 101.552 251.032C101.456 252.984 101.168 253.496 100.272 253.496C100.048 253.496 99.28 253.496 99.072 253.496C98.064 253.496 97.776 253.192 97.776 252.056V248.2ZM92.672 254.488H99.504V255.592H92.672V254.488ZM99.152 254.488H99.392L99.616 254.44L100.384 254.776C99.072 259.032 95.696 261.304 91.872 262.312C91.76 261.992 91.472 261.48 91.248 261.224C94.816 260.424 98.032 258.296 99.152 254.696V254.488ZM94.288 255.528C95.472 258.424 98 260.456 101.584 261.208C101.328 261.464 100.976 261.96 100.8 262.28C97.104 261.384 94.56 259.176 93.216 255.864L94.288 255.528ZM86.512 256.152C87.856 255.8 89.888 255.176 91.872 254.568L92.016 255.608C90.224 256.248 88.352 256.904 86.912 257.4L86.512 256.152ZM86.72 250.728H92.032V251.848H86.72V250.728ZM89.056 247.576H90.224V260.872C90.224 261.544 90.064 261.88 89.648 262.056C89.232 262.248 88.592 262.28 87.52 262.264C87.472 261.976 87.296 261.48 87.152 261.176C87.872 261.192 88.544 261.192 88.752 261.176C88.96 261.176 89.056 261.112 89.056 260.872V247.576ZM112.112 247.576H113.28V249.704H112.112V247.576ZM108.288 249.208H117.072V250.184H108.288V249.208ZM110.624 251.96V253.496H114.848V251.96H110.624ZM109.584 251.064H115.936V254.392H109.584V251.064ZM108.416 255.272H116.368V256.248H109.504V262.264H108.416V255.272ZM115.936 255.272H117.04V261.112C117.04 261.64 116.928 261.928 116.56 262.104C116.192 262.264 115.6 262.28 114.688 262.28C114.64 261.992 114.496 261.592 114.352 261.32C114.992 261.336 115.536 261.336 115.712 261.32C115.872 261.304 115.936 261.272 115.936 261.096V255.272ZM110.656 257.208H111.552V261.24H110.656V257.208ZM111.28 257.208H114.768V260.472H111.28V259.656H113.872V258.024H111.28V257.208ZM105.072 248.84H106.224V262.296H105.072V248.84ZM102.72 252.008H108.256V253.128H102.72V252.008ZM105.136 252.44L105.888 252.744C105.328 254.968 104.208 257.816 103.088 259.288C102.976 258.968 102.688 258.472 102.48 258.184C103.504 256.888 104.64 254.392 105.136 252.44ZM107.344 247.832L108.24 248.728C106.848 249.272 104.784 249.672 103.056 249.896C102.992 249.64 102.832 249.24 102.688 248.968C104.352 248.712 106.288 248.312 107.344 247.832ZM106.16 253.64C106.544 253.992 107.888 255.592 108.176 255.992L107.44 256.92C107.12 256.232 106.032 254.68 105.616 254.104L106.16 253.64ZM126.416 253.688H131.936V254.824H126.416V253.688ZM125.888 253.688H127.088V260.216C127.088 260.84 127.264 260.968 128.144 260.968C128.56 260.968 130.64 260.968 131.184 260.968C132.048 260.968 132.176 260.552 132.272 258.328C132.56 258.536 133.072 258.744 133.408 258.824C133.232 261.4 132.864 262.12 131.264 262.12C130.864 262.12 128.416 262.12 128.048 262.12C126.384 262.12 125.888 261.736 125.888 260.2V253.688ZM125.712 248.472H132.56V255.72H131.344V249.608H125.712V248.472ZM119.36 252.408H124.352V253.368H119.36V252.408ZM119.456 248.136H124.416V249.096H119.456V248.136ZM119.36 254.552H124.352V255.512H119.36V254.552ZM118.608 250.232H124.976V251.224H118.608V250.232ZM119.92 256.712H124.304V261.384H119.92V260.376H123.232V257.704H119.92V256.712ZM119.344 256.712H120.416V262.12H119.344V256.712ZM141.328 247.56H142.544V260.936C142.544 261.688 142.336 261.976 141.84 262.152C141.328 262.312 140.496 262.328 139.152 262.328C139.088 262.04 138.896 261.592 138.736 261.32C139.696 261.352 140.656 261.336 140.944 261.336C141.232 261.32 141.328 261.224 141.328 260.936V247.56ZM135.072 248.84H148.96V249.832H135.072V248.84ZM137.888 251.624V252.776H146.144V251.624H137.888ZM136.752 250.792H147.36V253.624H136.752V250.792ZM136.288 254.744H147.6V260.568H146.4V255.64H136.288V254.744ZM134.768 256.744H149.264V257.704H134.768V256.744ZM136.128 258.92H147.024V259.848H136.128V258.92ZM159.008 250.088C158.8 251.752 158.48 253.624 157.984 255.336C157.008 258.616 155.728 260.312 154.256 260.312C152.816 260.312 151.392 258.68 151.392 256.024C151.392 252.552 154.48 249.528 158.4 249.528C162.144 249.528 164.528 252.168 164.528 255.416C164.528 258.76 162.32 261 158.512 261.496L157.776 260.312C158.288 260.264 158.768 260.2 159.152 260.12C161.2 259.656 163.216 258.12 163.216 255.352C163.216 252.792 161.44 250.68 158.368 250.68C154.848 250.68 152.656 253.576 152.656 255.928C152.656 257.944 153.568 258.84 154.288 258.84C155.04 258.84 155.904 257.752 156.72 255.048C157.184 253.528 157.52 251.72 157.68 250.056L159.008 250.088ZM169.408 253.304H178.704V254.424H169.408V253.304ZM169.408 256.776H178.704V257.896H169.408V256.776ZM169.408 260.28H178.704V261.4H169.408V260.28ZM168.592 249.752H179.632V262.216H178.384V250.904H169.808V262.296H168.592V249.752ZM173.28 247.544L174.672 247.72C174.32 248.68 173.904 249.72 173.552 250.408L172.48 250.2C172.768 249.448 173.12 248.328 173.28 247.544ZM183.104 258.024H190.4V258.936H183.104V258.024ZM182.672 250.312H190.656V251.24H182.672V250.312ZM186.144 248.856H187.248V260.632H186.144V248.856ZM182.656 260.664C184.608 260.488 187.6 260.2 190.464 259.896L190.48 260.84C187.76 261.16 184.864 261.496 182.832 261.704L182.656 260.664ZM184.144 255.032V256.216H189.328V255.032H184.144ZM184.144 253.08V254.232H189.328V253.08H184.144ZM183.136 252.248H190.352V257.048H183.136V252.248ZM189.776 247.72L190.384 248.648C188.496 249.064 185.52 249.336 183.12 249.416C183.072 249.16 182.96 248.76 182.832 248.52C185.216 248.392 188.128 248.104 189.776 247.72ZM190.544 251.304H196.32V252.424H190.544V251.304ZM195.856 251.304H197.008C197.008 251.304 196.992 251.752 196.992 251.912C196.816 258.664 196.656 260.904 196.128 261.592C195.84 262.008 195.52 262.152 195.04 262.2C194.592 262.248 193.824 262.248 193.088 262.2C193.056 261.864 192.928 261.368 192.736 261.048C193.52 261.112 194.224 261.128 194.544 261.128C194.8 261.128 194.96 261.08 195.104 260.872C195.504 260.376 195.68 258.072 195.856 251.592V251.304ZM192.48 247.768H193.632C193.616 254.136 193.6 259.512 189.776 262.376C189.584 262.088 189.168 261.704 188.88 261.512C192.544 258.888 192.464 253.816 192.48 247.768ZM199.824 256.44H212.24V257.432H199.824V256.44ZM198.896 248.6H206.288V249.48H198.896V248.6ZM206.032 258.664H211.184V259.608H206.032V258.664ZM198.752 260.92H213.28V261.928H198.752V260.92ZM205.376 256.808H206.576V261.416H205.376V256.808ZM202.064 247.56H203.136V256.008H202.064V247.56ZM201.376 258.152H202.528V261.464H201.376V258.152ZM200.352 251.112V252.424H204.88V251.112H200.352ZM199.376 250.296H205.904V253.24H199.376V250.296ZM203.12 253.192C203.68 253.432 205.52 254.36 206.016 254.632L205.424 255.432C204.816 255 203.216 254.088 202.528 253.72L203.12 253.192ZM208.272 247.576L209.36 247.816C208.8 249.656 207.824 251.368 206.656 252.472C206.496 252.264 206.08 251.848 205.84 251.656C206.96 250.68 207.808 249.192 208.272 247.576ZM207.968 249.352H213.216V250.344H207.488L207.968 249.352ZM211.168 249.8L212.304 249.928C211.488 253.16 209.456 254.968 206.48 256.072C206.352 255.832 206 255.368 205.76 255.176C208.624 254.296 210.512 252.648 211.168 249.8ZM208.096 249.944C208.784 251.96 210.48 254.232 213.488 255.176C213.264 255.384 212.96 255.832 212.8 256.12C209.776 255 208.048 252.568 207.312 250.472L208.096 249.944ZM201.968 252.824L202.736 253.16C201.952 254.232 200.48 255.416 199.344 256.024C199.184 255.768 198.864 255.432 198.624 255.256C199.776 254.76 201.216 253.752 201.968 252.824ZM221.6 252.376V254.44H227.552V252.376H221.6ZM221.6 249.352V251.384H227.552V249.352H221.6ZM220.512 248.312H228.704V255.48H220.512V248.312ZM220.304 257.352H228.928V258.456H220.304V257.352ZM219.072 260.664H229.456V261.752H219.072V260.664ZM214.72 248.648H219.712V249.784H214.72V248.648ZM214.896 253.272H219.488V254.408H214.896V253.272ZM214.56 259.4C215.856 259.048 217.776 258.424 219.632 257.8L219.84 258.952C218.096 259.544 216.272 260.152 214.848 260.632L214.56 259.4ZM216.72 249.096H217.872V259.016L216.72 259.24V249.096ZM224.048 248.808H225.104V254.968H225.184V261.16H223.968V254.968H224.048V248.808ZM237.36 248.36C237.216 248.984 237.04 249.864 236.624 250.936C236.224 251.912 235.632 252.984 234.992 253.816C235.616 253.448 236.528 253.224 237.232 253.224C238.464 253.224 239.424 253.96 239.424 255.256C239.424 256.088 239.456 257.928 239.472 258.92H238.24C238.304 258.072 238.32 256.424 238.304 255.592C238.288 254.664 237.648 254.232 236.816 254.232C235.792 254.232 234.784 254.744 234.048 255.4C233.584 255.848 233.136 256.424 232.608 257.08L231.504 256.264C233.808 254.056 234.88 252.2 235.424 250.84C235.776 249.96 236 249 236.048 248.248L237.36 248.36ZM231.872 250.088C232.736 250.2 233.84 250.248 234.576 250.248C236.736 250.248 239.504 250.12 241.76 249.72V250.904C239.52 251.24 236.544 251.384 234.512 251.384C233.824 251.384 232.768 251.352 231.872 251.288V250.088ZM244.096 253.944C243.696 254.072 243.12 254.296 242.688 254.456C241.552 254.904 240.032 255.512 238.48 256.312C236.896 257.144 235.776 258.008 235.776 259.112C235.776 260.36 237.008 260.552 238.656 260.552C239.904 260.552 241.632 260.408 243.04 260.152L242.992 261.448C241.776 261.592 240 261.72 238.608 261.72C236.336 261.72 234.496 261.224 234.496 259.288C234.496 257.336 236.48 256.136 238.384 255.16C239.904 254.376 241.2 253.88 242.256 253.384C242.736 253.16 243.136 252.984 243.584 252.76L244.096 253.944ZM253.36 247.576H254.592V249.912H253.36V247.576ZM247.232 249.144H260.752V252.248H259.52V250.216H248.416V252.248H247.232V249.144ZM248.576 252.072H259.52V253.08H248.576V252.072ZM246.992 257.048H261.088V258.104H246.992V257.048ZM248.832 254.52H259.296V255.528H248.832V254.52ZM254.816 257.304C255.808 259.512 258.048 260.824 261.264 261.272C261.008 261.528 260.688 262.008 260.528 262.328C257.152 261.72 254.88 260.216 253.728 257.56L254.816 257.304ZM253.344 250.744H254.544V254.728C254.544 257.464 253.776 260.424 247.568 262.28C247.44 262.024 247.088 261.576 246.832 261.32C252.864 259.64 253.344 257.032 253.344 254.728V250.744ZM268.96 248.536H276.816V249.688H268.96V248.536ZM273.632 253.304H274.848V260.744C274.848 261.496 274.672 261.864 274.128 262.056C273.584 262.232 272.672 262.248 271.104 262.248C271.056 261.912 270.896 261.416 270.72 261.064C271.856 261.096 272.928 261.096 273.216 261.08C273.536 261.064 273.632 261 273.632 260.728V253.304ZM268.256 252.952H277.28V254.088H268.256V252.952ZM265.056 254.184L266.112 253.144L266.256 253.208V262.328H265.056V254.184ZM266.912 250.984L268.048 251.416C266.8 253.448 264.912 255.512 263.232 256.856C263.056 256.616 262.64 256.088 262.384 255.864C264.048 254.68 265.808 252.824 266.912 250.984ZM266.256 247.56L267.408 248.024C266.336 249.432 264.688 250.984 263.264 252.008C263.088 251.752 262.768 251.288 262.56 251.048C263.888 250.152 265.44 248.712 266.256 247.56Z" fill="#374151"/>
<path d="M505.858 55.1591C505.078 55.1591 504.381 55.0246 503.767 54.7557C503.157 54.4867 502.674 54.1136 502.318 53.6364C501.966 53.1553 501.777 52.5985 501.75 51.9659H503.534C503.557 52.3106 503.672 52.6098 503.881 52.8636C504.093 53.1136 504.369 53.3068 504.71 53.4432C505.051 53.5795 505.43 53.6477 505.847 53.6477C506.305 53.6477 506.71 53.5682 507.062 53.4091C507.419 53.25 507.697 53.0284 507.898 52.7443C508.098 52.4564 508.199 52.125 508.199 51.75C508.199 51.3598 508.098 51.017 507.898 50.7216C507.701 50.4223 507.411 50.1875 507.028 50.017C506.65 49.8466 506.191 49.7614 505.653 49.7614H504.67V48.3295H505.653C506.085 48.3295 506.464 48.2519 506.79 48.0966C507.119 47.9413 507.377 47.7254 507.562 47.4489C507.748 47.1686 507.841 46.8409 507.841 46.4659C507.841 46.1061 507.759 45.7936 507.597 45.5284C507.438 45.2595 507.21 45.0492 506.915 44.8977C506.623 44.7462 506.278 44.6705 505.881 44.6705C505.502 44.6705 505.148 44.7405 504.818 44.8807C504.492 45.017 504.227 45.214 504.023 45.4716C503.818 45.7254 503.708 46.0303 503.693 46.3864H501.994C502.013 45.7576 502.199 45.2045 502.551 44.7273C502.907 44.25 503.377 43.8769 503.96 43.608C504.544 43.339 505.191 43.2045 505.903 43.2045C506.65 43.2045 507.294 43.3504 507.835 43.642C508.381 43.9299 508.801 44.3144 509.097 44.7955C509.396 45.2765 509.544 45.803 509.54 46.375C509.544 47.0265 509.362 47.5795 508.994 48.0341C508.631 48.4886 508.146 48.7936 507.54 48.9489V49.0398C508.313 49.1572 508.911 49.464 509.335 49.9602C509.763 50.4564 509.975 51.072 509.972 51.8068C509.975 52.447 509.797 53.0208 509.438 53.5284C509.081 54.036 508.595 54.4356 507.977 54.7273C507.36 55.0152 506.653 55.1591 505.858 55.1591ZM517.736 43.48H525.736V44.536H517.736V43.48ZM517.048 46.584H526.424V47.656H517.048V46.584ZM517.128 49.48H526.248V50.552H517.128V49.48ZM521.096 41.56H522.28V47.24H521.096V41.56ZM523.208 47.496H524.376V54.856C524.376 55.544 524.216 55.896 523.72 56.072C523.224 56.248 522.408 56.264 521.128 56.264C521.08 55.944 520.888 55.464 520.712 55.144C521.704 55.176 522.6 55.176 522.856 55.16C523.128 55.144 523.208 55.08 523.208 54.84V47.496ZM518.104 51.672L519.064 51.096C519.896 51.928 520.792 53.064 521.176 53.848L520.136 54.488C519.784 53.704 518.92 52.504 518.104 51.672ZM512.776 42.616H516.776V53.128H512.776V52.04H515.656V43.704H512.776V42.616ZM512.824 47.272H516.184V48.344H512.824V47.272ZM512.2 42.616H513.336V54.44H512.2V42.616ZM532.552 51.368H537.4V52.296H532.552V51.368ZM532.504 48.952H537.96V54.792H532.504V53.864H536.824V49.896H532.504V48.952ZM531.976 48.952H533.08V55.608H531.976V48.952ZM529.032 44.52H533.48V45.4H529.032V44.52ZM536.408 44.52H540.936V45.4H536.408V44.52ZM540.44 42.248H541.64V54.696C541.64 55.464 541.464 55.864 540.952 56.072C540.44 56.264 539.576 56.28 538.232 56.28C538.184 55.944 537.992 55.384 537.816 55.048C538.792 55.096 539.768 55.08 540.056 55.064C540.344 55.064 540.44 54.968 540.44 54.696V42.248ZM529.128 42.248H534.248V47.752H529.128V46.824H533.112V43.176H529.128V42.248ZM541.032 42.248V43.176H536.84V46.856H541.032V47.768H535.688V42.248H541.032ZM528.44 42.248H529.624V56.296H528.44V42.248ZM543.848 44.088H558.152V45.208H543.848V44.088ZM545.496 49.24H549.976V50.184H545.496V49.24ZM545.496 51.8H549.976V52.744H545.496V51.8ZM552.648 46.776H553.784V53.352H552.648V46.776ZM549.544 46.632H550.712V54.904C550.712 55.512 550.568 55.832 550.12 56.024C549.688 56.216 548.984 56.216 547.896 56.216C547.832 55.912 547.656 55.464 547.496 55.16C548.296 55.192 549.032 55.192 549.256 55.176C549.48 55.16 549.544 55.096 549.544 54.888V46.632ZM555.896 46.296H557.08V54.792C557.08 55.496 556.92 55.832 556.424 56.024C555.928 56.2 555.128 56.232 553.88 56.232C553.816 55.912 553.624 55.4 553.448 55.08C554.424 55.112 555.288 55.112 555.56 55.096C555.816 55.08 555.896 55.016 555.896 54.792V46.296ZM546.328 41.96L547.432 41.544C548.056 42.232 548.728 43.176 549.032 43.8L547.848 44.232C547.592 43.624 546.936 42.648 546.328 41.96ZM554.552 41.496L555.832 41.912C555.224 42.904 554.504 44.008 553.912 44.76L552.856 44.36C553.432 43.592 554.152 42.36 554.552 41.496ZM544.856 46.632H549.928V47.672H545.992V56.2H544.856V46.632Z" fill="#374151"/>
<path d="M518.307 153V151.727L522.244 147.648C522.665 147.205 523.011 146.816 523.284 146.483C523.561 146.146 523.767 145.826 523.903 145.523C524.04 145.22 524.108 144.898 524.108 144.557C524.108 144.17 524.017 143.837 523.835 143.557C523.653 143.273 523.405 143.055 523.091 142.903C522.777 142.748 522.422 142.67 522.028 142.67C521.612 142.67 521.248 142.756 520.938 142.926C520.627 143.097 520.388 143.337 520.222 143.648C520.055 143.958 519.972 144.322 519.972 144.739H518.295C518.295 144.03 518.458 143.411 518.784 142.881C519.11 142.35 519.557 141.939 520.125 141.648C520.693 141.352 521.339 141.205 522.062 141.205C522.794 141.205 523.438 141.35 523.994 141.642C524.555 141.93 524.992 142.324 525.307 142.824C525.621 143.32 525.778 143.881 525.778 144.506C525.778 144.938 525.697 145.36 525.534 145.773C525.375 146.186 525.097 146.646 524.699 147.153C524.301 147.657 523.748 148.269 523.04 148.989L520.727 151.409V151.494H525.966V153H518.307ZM529.816 140.648H540.296V154.04H539.032V141.864H531.048V154.104H529.816V140.648ZM530.632 146.2H539.56V147.384H530.632V146.2ZM530.616 151.864H539.592V153.064H530.616V151.864ZM543.848 142.088H558.152V143.208H543.848V142.088ZM545.496 147.24H549.976V148.184H545.496V147.24ZM545.496 149.8H549.976V150.744H545.496V149.8ZM552.648 144.776H553.784V151.352H552.648V144.776ZM549.544 144.632H550.712V152.904C550.712 153.512 550.568 153.832 550.12 154.024C549.688 154.216 548.984 154.216 547.896 154.216C547.832 153.912 547.656 153.464 547.496 153.16C548.296 153.192 549.032 153.192 549.256 153.176C549.48 153.16 549.544 153.096 549.544 152.888V144.632ZM555.896 144.296H557.08V152.792C557.08 153.496 556.92 153.832 556.424 154.024C555.928 154.2 555.128 154.232 553.88 154.232C553.816 153.912 553.624 153.4 553.448 153.08C554.424 153.112 555.288 153.112 555.56 153.096C555.816 153.08 555.896 153.016 555.896 152.792V144.296ZM546.328 139.96L547.432 139.544C548.056 140.232 548.728 141.176 549.032 141.8L547.848 142.232C547.592 141.624 546.936 140.648 546.328 139.96ZM554.552 139.496L555.832 139.912C555.224 140.904 554.504 142.008 553.912 142.76L552.856 142.36C553.432 141.592 554.152 140.36 554.552 139.496ZM544.856 144.632H549.928V145.672H545.992V154.2H544.856V144.632Z" fill="#374151"/>
<path d="M514.952 102V100.8H518.504V92.032H515.8V91.088C517.112 90.88 518.104 90.736 518.872 90.256H519.976V100.8H523.304V102H514.952ZM529.816 89.648H540.296V103.04H539.032V90.864H531.048V103.104H529.816V89.648ZM530.632 95.2H539.56V96.384H530.632V95.2ZM530.616 100.864H539.592V102.064H530.616V100.864ZM543.848 91.088H558.152V92.208H543.848V91.088ZM545.496 96.24H549.976V97.184H545.496V96.24ZM545.496 98.8H549.976V99.744H545.496V98.8ZM552.648 93.776H553.784V100.352H552.648V93.776ZM549.544 93.632H550.712V101.904C550.712 102.512 550.568 102.832 550.12 103.024C549.688 103.216 548.984 103.216 547.896 103.216C547.832 102.912 547.656 102.464 547.496 102.16C548.296 102.192 549.032 102.192 549.256 102.176C549.48 102.16 549.544 102.096 549.544 101.888V93.632ZM555.896 93.296H557.08V101.792C557.08 102.496 556.92 102.832 556.424 103.024C555.928 103.2 555.128 103.232 553.88 103.232C553.816 102.912 553.624 102.4 553.448 102.08C554.424 102.112 555.288 102.112 555.56 102.096C555.816 102.08 555.896 102.016 555.896 101.792V93.296ZM546.328 88.96L547.432 88.544C548.056 89.232 548.728 90.176 549.032 90.8L547.848 91.232C547.592 90.624 546.936 89.648 546.328 88.96ZM554.552 88.496L555.832 88.912C555.224 89.904 554.504 91.008 553.912 91.76L552.856 91.36C553.432 90.592 554.152 89.36 554.552 88.496ZM544.856 93.632H549.928V94.672H545.992V103.2H544.856V93.632Z" fill="#374151"/>
<path d="M517.406 204.727V203.307L522.435 195.364H523.554V197.455H522.844L519.247 203.148V203.239H526.139V204.727H517.406ZM522.923 207V204.295L522.935 203.648V195.364H524.599V207H522.923ZM529.816 194.648H540.296V208.04H539.032V195.864H531.048V208.104H529.816V194.648ZM530.632 200.2H539.56V201.384H530.632V200.2ZM530.616 205.864H539.592V207.064H530.616V205.864ZM543.848 196.088H558.152V197.208H543.848V196.088ZM545.496 201.24H549.976V202.184H545.496V201.24ZM545.496 203.8H549.976V204.744H545.496V203.8ZM552.648 198.776H553.784V205.352H552.648V198.776ZM549.544 198.632H550.712V206.904C550.712 207.512 550.568 207.832 550.12 208.024C549.688 208.216 548.984 208.216 547.896 208.216C547.832 207.912 547.656 207.464 547.496 207.16C548.296 207.192 549.032 207.192 549.256 207.176C549.48 207.16 549.544 207.096 549.544 206.888V198.632ZM555.896 198.296H557.08V206.792C557.08 207.496 556.92 207.832 556.424 208.024C555.928 208.2 555.128 208.232 553.88 208.232C553.816 207.912 553.624 207.4 553.448 207.08C554.424 207.112 555.288 207.112 555.56 207.096C555.816 207.08 555.896 207.016 555.896 206.792V198.296ZM546.328 193.96L547.432 193.544C548.056 194.232 548.728 195.176 549.032 195.8L547.848 196.232C547.592 195.624 546.936 194.648 546.328 193.96ZM554.552 193.496L555.832 193.912C555.224 194.904 554.504 196.008 553.912 196.76L552.856 196.36C553.432 195.592 554.152 194.36 554.552 193.496ZM544.856 198.632H549.928V199.672H545.992V208.2H544.856V198.632Z" fill="#374151"/>
<path d="M517.406 258.727V257.307L522.435 249.364H523.554V251.455H522.844L519.247 257.148V257.239H526.139V258.727H517.406ZM522.923 261V258.295L522.935 257.648V249.364H524.599V261H522.923ZM529.816 248.648H540.296V262.04H539.032V249.864H531.048V262.104H529.816V248.648ZM530.632 254.2H539.56V255.384H530.632V254.2ZM530.616 259.864H539.592V261.064H530.616V259.864ZM543.848 250.088H558.152V251.208H543.848V250.088ZM545.496 255.24H549.976V256.184H545.496V255.24ZM545.496 257.8H549.976V258.744H545.496V257.8ZM552.648 252.776H553.784V259.352H552.648V252.776ZM549.544 252.632H550.712V260.904C550.712 261.512 550.568 261.832 550.12 262.024C549.688 262.216 548.984 262.216 547.896 262.216C547.832 261.912 547.656 261.464 547.496 261.16C548.296 261.192 549.032 261.192 549.256 261.176C549.48 261.16 549.544 261.096 549.544 260.888V252.632ZM555.896 252.296H557.08V260.792C557.08 261.496 556.92 261.832 556.424 262.024C555.928 262.2 555.128 262.232 553.88 262.232C553.816 261.912 553.624 261.4 553.448 261.08C554.424 261.112 555.288 261.112 555.56 261.096C555.816 261.08 555.896 261.016 555.896 260.792V252.296ZM546.328 247.96L547.432 247.544C548.056 248.232 548.728 249.176 549.032 249.8L547.848 250.232C547.592 249.624 546.936 248.648 546.328 247.96ZM554.552 247.496L555.832 247.912C555.224 248.904 554.504 250.008 553.912 250.76L552.856 250.36C553.432 249.592 554.152 248.36 554.552 247.496ZM544.856 252.632H549.928V253.672H545.992V262.2H544.856V252.632Z" fill="#374151"/>
<line x1="23" y1="25.5" x2="559" y2="25.5" stroke="#E5E7EB" stroke-dasharray="2 2"/>
<line x1="23" y1="173.5" x2="559" y2="173.5" stroke="#E5E7EB" stroke-dasharray="2 2"/>
<line x1="23" y1="71.5" x2="559" y2="71.5" stroke="#E5E7EB" stroke-dasharray="2 2"/>
<line x1="23" y1="122.5" x2="559" y2="122.5" stroke="#E5E7EB" stroke-dasharray="2 2"/>
<rect x="27" y="134" width="41" height="26" fill="#D9D9D9"/>
<line x1="23" y1="227.5" x2="559" y2="227.5" stroke="#E5E7EB" stroke-dasharray="2 2"/>
<line x1="23" y1="281.5" x2="559" y2="281.5" stroke="#E5E7EB" stroke-dasharray="2 2"/>
<rect x="27" y="36" width="41" height="26" fill="#D9D9D9"/>
<rect x="27" y="83" width="41" height="26" fill="#D9D9D9"/>
<rect x="27" y="188" width="41" height="26" fill="#D9D9D9"/>
<rect x="27" y="242" width="41" height="26" fill="#D9D9D9"/>
</svg>
