<svg width="62" height="62" viewBox="0 0 62 62" fill="none" xmlns="http://www.w3.org/2000/svg">
<circle cx="31" cy="31" r="31" fill="#03BFFD"/>
<mask id="mask0_462_960" style="mask-type:alpha" maskUnits="userSpaceOnUse" x="0" y="0" width="62" height="62">
<circle cx="31" cy="31" r="31" fill="#03BFFD"/>
</mask>
<g mask="url(#mask0_462_960)">
<path d="M31.7798 -22.25L31.7798 32.3096L-15.4702 5.0298L31.7798 -22.25Z" fill="#DCEDF1"/>
</g>
<circle cx="31" cy="31" r="17" fill="white"/>
<path opacity="0.8" d="M24.672 29.672H29.304V30.24H24.672V29.672ZM24.672 31.568H29.304V32.136H24.672V31.568ZM24.672 33.472H29.304V34.056H24.672V33.472ZM24.256 27.776H29.688V34.6H29.064V28.368H24.856V34.6H24.256V27.776ZM34.504 31.096H38.272V31.552H34.504V31.096ZM34.04 27.64H38.68V28.136H34.04V27.64ZM34 32.136H38.68V32.632H34V32.136ZM37.176 33.12L37.608 32.832C38.016 33.2 38.504 33.712 38.736 34.048L38.288 34.376C38.064 34.04 37.584 33.504 37.176 33.12ZM34.808 29.16V30.152H37.944V29.16H34.808ZM34.296 28.696H38.472V30.616H34.296V28.696ZM36.04 32.36H36.6V34.048C36.6 34.328 36.56 34.48 36.344 34.56C36.136 34.648 35.816 34.648 35.32 34.648C35.288 34.496 35.208 34.296 35.136 34.152C35.52 34.16 35.824 34.16 35.912 34.152C36.016 34.152 36.04 34.12 36.04 34.04V32.36ZM34.928 32.808L35.392 33.072C35.072 33.544 34.568 34.032 34.088 34.368C33.992 34.256 33.832 34.104 33.704 34.008C34.176 33.704 34.664 33.216 34.928 32.808ZM35.48 27.912H35.968V28.976H35.48V27.912ZM35.528 28.904H35.968V30.424H35.528V28.904ZM36.712 27.912H37.2V28.976H36.712V27.912ZM36.712 28.904H37.152V30.424H36.712V28.904ZM31.408 29.016H33.984V29.584H31.408V29.016ZM32.536 27.28H33.088V34.632H32.536V27.28ZM32.52 29.352L32.888 29.48C32.64 30.744 32.112 32.32 31.552 33.12C31.488 32.968 31.344 32.736 31.248 32.608C31.776 31.888 32.296 30.496 32.52 29.352ZM33.048 30.08C33.232 30.304 33.904 31.312 34.048 31.544L33.712 31.992C33.536 31.592 32.984 30.656 32.776 30.336L33.048 30.08Z" fill="#074E5D"/>
</svg>
