<svg width="441" height="269" viewBox="0 0 441 269" fill="none" xmlns="http://www.w3.org/2000/svg">
<line x1="57" y1="230.5" x2="422" y2="230.5" stroke="#E5E7EB"/>
<line x1="57" y1="183.5" x2="422" y2="183.5" stroke="#E5E7EB" stroke-dasharray="2 2"/>
<line x1="57" y1="136.5" x2="422" y2="136.5" stroke="#E5E7EB" stroke-dasharray="2 2"/>
<line x1="57" y1="89.5" x2="422" y2="89.5" stroke="#E5E7EB" stroke-dasharray="2 2"/>
<line x1="57" y1="42.5" x2="422" y2="42.5" stroke="#E5E7EB" stroke-dasharray="2 2"/>
<rect x="88" y="23" width="21" height="208" fill="#03BFFD"/>
<rect x="128" y="80" width="20" height="151" fill="#03BFFD"/>
<rect x="171" y="136" width="20" height="95" fill="#03BFFD"/>
<rect x="211" y="102" width="20" height="129" fill="#03BFFD"/>
<rect x="251" y="80" width="20" height="151" fill="#03BFFD"/>
<rect x="293" y="80" width="21" height="151" fill="#03BFFD"/>
<rect x="337" y="23" width="21" height="208" fill="#03BFFD"/>
<rect x="377" y="111" width="20" height="120" fill="#03BFFD"/>
<path d="M93.7077 243.727H94.5884V248.926C94.5884 249.39 94.5032 249.784 94.3327 250.109C94.1623 250.433 93.922 250.679 93.6119 250.847C93.3017 251.015 92.936 251.099 92.5146 251.099C92.1168 251.099 91.7629 251.027 91.4528 250.883C91.1426 250.736 90.8988 250.528 90.7212 250.258C90.5437 249.988 90.4549 249.667 90.4549 249.295H91.3214C91.3214 249.501 91.3723 249.681 91.4741 249.835C91.5782 249.987 91.7203 250.105 91.9002 250.19C92.0801 250.276 92.2849 250.318 92.5146 250.318C92.7679 250.318 92.9833 250.265 93.1609 250.158C93.3384 250.052 93.4734 249.896 93.5657 249.69C93.6604 249.481 93.7077 249.227 93.7077 248.926V243.727ZM97.8448 251.128C97.4992 251.128 97.1855 251.063 96.9038 250.933C96.622 250.8 96.3983 250.609 96.2326 250.361C96.0669 250.11 95.984 249.807 95.984 249.452C95.984 249.139 96.0456 248.886 96.1687 248.692C96.2918 248.495 96.4563 248.341 96.6623 248.23C96.8683 248.119 97.0955 248.036 97.3441 247.982C97.5951 247.925 97.8472 247.88 98.1005 247.847C98.4319 247.804 98.7006 247.772 98.9066 247.751C99.1149 247.727 99.2665 247.688 99.3612 247.634C99.4582 247.579 99.5067 247.484 99.5067 247.349V247.321C99.5067 246.971 99.4109 246.698 99.2191 246.504C99.0297 246.31 98.7421 246.213 98.3562 246.213C97.9561 246.213 97.6424 246.301 97.4151 246.476C97.1879 246.651 97.0281 246.838 96.9357 247.037L96.1403 246.753C96.2823 246.421 96.4717 246.163 96.7085 245.979C96.9476 245.792 97.208 245.661 97.4897 245.588C97.7738 245.512 98.0531 245.474 98.3278 245.474C98.503 245.474 98.7042 245.496 98.9315 245.538C99.1611 245.579 99.3825 245.663 99.5955 245.79C99.811 245.918 99.9897 246.111 100.132 246.369C100.274 246.627 100.345 246.973 100.345 247.406V251H99.5067V250.261H99.4641C99.4073 250.38 99.3126 250.506 99.18 250.641C99.0475 250.776 98.8711 250.891 98.6509 250.986C98.4308 251.08 98.1621 251.128 97.8448 251.128ZM97.9727 250.375C98.3041 250.375 98.5835 250.31 98.8107 250.18C99.0404 250.049 99.2132 249.881 99.3292 249.675C99.4476 249.469 99.5067 249.253 99.5067 249.026V248.259C99.4712 248.301 99.3931 248.34 99.2724 248.376C99.154 248.409 99.0167 248.438 98.8604 248.464C98.7066 248.488 98.5562 248.509 98.4094 248.528C98.265 248.545 98.1478 248.559 98.0579 248.571C97.8401 248.599 97.6365 248.646 97.4471 248.71C97.2601 248.771 97.1085 248.865 96.9925 248.99C96.8789 249.113 96.8221 249.281 96.8221 249.494C96.8221 249.786 96.9298 250.006 97.1452 250.155C97.363 250.302 97.6388 250.375 97.9727 250.375ZM102.713 247.719V251H101.874V245.545H102.684V246.398H102.755C102.883 246.121 103.077 245.898 103.338 245.73C103.598 245.56 103.934 245.474 104.346 245.474C104.715 245.474 105.039 245.55 105.316 245.702C105.593 245.851 105.808 246.078 105.962 246.384C106.116 246.687 106.193 247.07 106.193 247.534V251H105.355V247.591C105.355 247.162 105.243 246.829 105.021 246.589C104.798 246.348 104.493 246.227 104.105 246.227C103.837 246.227 103.598 246.285 103.387 246.401C103.179 246.517 103.014 246.687 102.894 246.909C102.773 247.132 102.713 247.402 102.713 247.719Z" fill="#374151"/>
<path d="M18.3993 188V187.361L20.7999 184.733C21.0816 184.425 21.3136 184.158 21.4959 183.93C21.6782 183.701 21.8132 183.485 21.9007 183.284C21.9907 183.08 22.0357 182.867 22.0357 182.645C22.0357 182.389 21.9741 182.168 21.851 181.981C21.7303 181.794 21.5646 181.649 21.3539 181.548C21.1432 181.446 20.9064 181.395 20.6436 181.395C20.3643 181.395 20.1204 181.453 19.9121 181.569C19.7061 181.683 19.5463 181.842 19.4327 182.048C19.3214 182.254 19.2658 182.496 19.2658 182.773H18.4277C18.4277 182.347 18.526 181.973 18.7225 181.651C18.919 181.329 19.1865 181.078 19.525 180.898C19.8659 180.718 20.2483 180.628 20.6721 180.628C21.0982 180.628 21.4758 180.718 21.8049 180.898C22.1339 181.078 22.392 181.32 22.579 181.626C22.766 181.931 22.8596 182.271 22.8596 182.645C22.8596 182.912 22.811 183.174 22.714 183.43C22.6193 183.683 22.4535 183.966 22.2168 184.278C21.9824 184.589 21.6569 184.967 21.2402 185.415L19.6067 187.162V187.219H22.9874V188H18.3993ZM25.7182 187.006L25.6614 187.389C25.6212 187.659 25.5596 187.948 25.4767 188.256C25.3962 188.563 25.3122 188.853 25.2246 189.126C25.137 189.398 25.0648 189.615 25.008 189.776H24.3688C24.3996 189.624 24.4398 189.424 24.4895 189.175C24.5392 188.927 24.589 188.649 24.6387 188.341C24.6908 188.036 24.7334 187.723 24.7665 187.403L24.8091 187.006H25.7182ZM29.375 188.099C28.84 188.099 28.3842 187.954 28.0078 187.663C27.6314 187.369 27.3438 186.944 27.1449 186.388C26.946 185.829 26.8466 185.154 26.8466 184.364C26.8466 183.578 26.946 182.906 27.1449 182.35C27.3461 181.791 27.6349 181.365 28.0114 181.072C28.3902 180.776 28.8447 180.628 29.375 180.628C29.9053 180.628 30.3587 180.776 30.7351 181.072C31.1139 181.365 31.4027 181.791 31.6016 182.35C31.8028 182.906 31.9034 183.578 31.9034 184.364C31.9034 185.154 31.804 185.829 31.6051 186.388C31.4062 186.944 31.1186 187.369 30.7422 187.663C30.3658 187.954 29.91 188.099 29.375 188.099ZM29.375 187.318C29.9053 187.318 30.3172 187.062 30.6108 186.551C30.9044 186.04 31.0511 185.311 31.0511 184.364C31.0511 183.734 30.9837 183.198 30.8487 182.755C30.7161 182.312 30.5244 181.975 30.2734 181.743C30.0249 181.511 29.7254 181.395 29.375 181.395C28.8494 181.395 28.4387 181.654 28.1428 182.173C27.8468 182.689 27.6989 183.419 27.6989 184.364C27.6989 184.993 27.7652 185.528 27.8977 185.969C28.0303 186.409 28.2209 186.744 28.4695 186.974C28.7204 187.203 29.0223 187.318 29.375 187.318ZM35.625 188.099C35.09 188.099 34.6342 187.954 34.2578 187.663C33.8814 187.369 33.5938 186.944 33.3949 186.388C33.196 185.829 33.0966 185.154 33.0966 184.364C33.0966 183.578 33.196 182.906 33.3949 182.35C33.5961 181.791 33.8849 181.365 34.2614 181.072C34.6402 180.776 35.0947 180.628 35.625 180.628C36.1553 180.628 36.6087 180.776 36.9851 181.072C37.3639 181.365 37.6527 181.791 37.8516 182.35C38.0528 182.906 38.1534 183.578 38.1534 184.364C38.1534 185.154 38.054 185.829 37.8551 186.388C37.6562 186.944 37.3686 187.369 36.9922 187.663C36.6158 187.954 36.16 188.099 35.625 188.099ZM35.625 187.318C36.1553 187.318 36.5672 187.062 36.8608 186.551C37.1544 186.04 37.3011 185.311 37.3011 184.364C37.3011 183.734 37.2337 183.198 37.0987 182.755C36.9661 182.312 36.7744 181.975 36.5234 181.743C36.2749 181.511 35.9754 181.395 35.625 181.395C35.0994 181.395 34.6887 181.654 34.3928 182.173C34.0968 182.689 33.9489 183.419 33.9489 184.364C33.9489 184.993 34.0152 185.528 34.1477 185.969C34.2803 186.409 34.4709 186.744 34.7195 186.974C34.9704 187.203 35.2723 187.318 35.625 187.318ZM41.875 188.099C41.34 188.099 40.8842 187.954 40.5078 187.663C40.1314 187.369 39.8438 186.944 39.6449 186.388C39.446 185.829 39.3466 185.154 39.3466 184.364C39.3466 183.578 39.446 182.906 39.6449 182.35C39.8461 181.791 40.1349 181.365 40.5114 181.072C40.8902 180.776 41.3447 180.628 41.875 180.628C42.4053 180.628 42.8587 180.776 43.2351 181.072C43.6139 181.365 43.9027 181.791 44.1016 182.35C44.3028 182.906 44.4034 183.578 44.4034 184.364C44.4034 185.154 44.304 185.829 44.1051 186.388C43.9062 186.944 43.6186 187.369 43.2422 187.663C42.8658 187.954 42.41 188.099 41.875 188.099ZM41.875 187.318C42.4053 187.318 42.8172 187.062 43.1108 186.551C43.4044 186.04 43.5511 185.311 43.5511 184.364C43.5511 183.734 43.4837 183.198 43.3487 182.755C43.2161 182.312 43.0244 181.975 42.7734 181.743C42.5249 181.511 42.2254 181.395 41.875 181.395C41.3494 181.395 40.9387 181.654 40.6428 182.173C40.3468 182.689 40.1989 183.419 40.1989 184.364C40.1989 184.993 40.2652 185.528 40.3977 185.969C40.5303 186.409 40.7209 186.744 40.9695 186.974C41.2204 187.203 41.5223 187.318 41.875 187.318Z" fill="#374151"/>
<path d="M41.875 235.099C41.34 235.099 40.8842 234.954 40.5078 234.663C40.1314 234.369 39.8438 233.944 39.6449 233.388C39.446 232.829 39.3466 232.154 39.3466 231.364C39.3466 230.578 39.446 229.906 39.6449 229.35C39.8461 228.791 40.1349 228.365 40.5114 228.072C40.8902 227.776 41.3447 227.628 41.875 227.628C42.4053 227.628 42.8587 227.776 43.2351 228.072C43.6139 228.365 43.9027 228.791 44.1016 229.35C44.3028 229.906 44.4034 230.578 44.4034 231.364C44.4034 232.154 44.304 232.829 44.1051 233.388C43.9062 233.944 43.6186 234.369 43.2422 234.663C42.8658 234.954 42.41 235.099 41.875 235.099ZM41.875 234.318C42.4053 234.318 42.8172 234.062 43.1108 233.551C43.4044 233.04 43.5511 232.311 43.5511 231.364C43.5511 230.734 43.4837 230.198 43.3487 229.755C43.2161 229.312 43.0244 228.975 42.7734 228.743C42.5249 228.511 42.2254 228.395 41.875 228.395C41.3494 228.395 40.9387 228.654 40.6428 229.173C40.3468 229.689 40.1989 230.419 40.1989 231.364C40.1989 231.993 40.2652 232.528 40.3977 232.969C40.5303 233.409 40.7209 233.744 40.9695 233.974C41.2204 234.203 41.5223 234.318 41.875 234.318Z" fill="#374151"/>
<path d="M18.2093 139.509V138.784L21.4054 133.727H21.9309V134.849H21.5758L19.161 138.67V138.727H23.465V139.509H18.2093ZM21.6326 141V139.288V138.951V133.727H22.4707V141H21.6326ZM25.7182 140.006L25.6614 140.389C25.6212 140.659 25.5596 140.948 25.4767 141.256C25.3962 141.563 25.3122 141.853 25.2246 142.126C25.137 142.398 25.0648 142.615 25.008 142.776H24.3688C24.3996 142.624 24.4398 142.424 24.4895 142.175C24.5392 141.927 24.589 141.649 24.6387 141.341C24.6908 141.036 24.7334 140.723 24.7665 140.403L24.8091 140.006H25.7182ZM29.375 141.099C28.84 141.099 28.3842 140.954 28.0078 140.663C27.6314 140.369 27.3438 139.944 27.1449 139.388C26.946 138.829 26.8466 138.154 26.8466 137.364C26.8466 136.578 26.946 135.906 27.1449 135.35C27.3461 134.791 27.6349 134.365 28.0114 134.072C28.3902 133.776 28.8447 133.628 29.375 133.628C29.9053 133.628 30.3587 133.776 30.7351 134.072C31.1139 134.365 31.4027 134.791 31.6016 135.35C31.8028 135.906 31.9034 136.578 31.9034 137.364C31.9034 138.154 31.804 138.829 31.6051 139.388C31.4062 139.944 31.1186 140.369 30.7422 140.663C30.3658 140.954 29.91 141.099 29.375 141.099ZM29.375 140.318C29.9053 140.318 30.3172 140.062 30.6108 139.551C30.9044 139.04 31.0511 138.311 31.0511 137.364C31.0511 136.734 30.9837 136.198 30.8487 135.755C30.7161 135.312 30.5244 134.975 30.2734 134.743C30.0249 134.511 29.7254 134.395 29.375 134.395C28.8494 134.395 28.4387 134.654 28.1428 135.173C27.8468 135.689 27.6989 136.419 27.6989 137.364C27.6989 137.993 27.7652 138.528 27.8977 138.969C28.0303 139.409 28.2209 139.744 28.4695 139.974C28.7204 140.203 29.0223 140.318 29.375 140.318ZM35.625 141.099C35.09 141.099 34.6342 140.954 34.2578 140.663C33.8814 140.369 33.5938 139.944 33.3949 139.388C33.196 138.829 33.0966 138.154 33.0966 137.364C33.0966 136.578 33.196 135.906 33.3949 135.35C33.5961 134.791 33.8849 134.365 34.2614 134.072C34.6402 133.776 35.0947 133.628 35.625 133.628C36.1553 133.628 36.6087 133.776 36.9851 134.072C37.3639 134.365 37.6527 134.791 37.8516 135.35C38.0528 135.906 38.1534 136.578 38.1534 137.364C38.1534 138.154 38.054 138.829 37.8551 139.388C37.6562 139.944 37.3686 140.369 36.9922 140.663C36.6158 140.954 36.16 141.099 35.625 141.099ZM35.625 140.318C36.1553 140.318 36.5672 140.062 36.8608 139.551C37.1544 139.04 37.3011 138.311 37.3011 137.364C37.3011 136.734 37.2337 136.198 37.0987 135.755C36.9661 135.312 36.7744 134.975 36.5234 134.743C36.2749 134.511 35.9754 134.395 35.625 134.395C35.0994 134.395 34.6887 134.654 34.3928 135.173C34.0968 135.689 33.9489 136.419 33.9489 137.364C33.9489 137.993 34.0152 138.528 34.1477 138.969C34.2803 139.409 34.4709 139.744 34.7195 139.974C34.9704 140.203 35.2723 140.318 35.625 140.318ZM41.875 141.099C41.34 141.099 40.8842 140.954 40.5078 140.663C40.1314 140.369 39.8438 139.944 39.6449 139.388C39.446 138.829 39.3466 138.154 39.3466 137.364C39.3466 136.578 39.446 135.906 39.6449 135.35C39.8461 134.791 40.1349 134.365 40.5114 134.072C40.8902 133.776 41.3447 133.628 41.875 133.628C42.4053 133.628 42.8587 133.776 43.2351 134.072C43.6139 134.365 43.9027 134.791 44.1016 135.35C44.3028 135.906 44.4034 136.578 44.4034 137.364C44.4034 138.154 44.304 138.829 44.1051 139.388C43.9062 139.944 43.6186 140.369 43.2422 140.663C42.8658 140.954 42.41 141.099 41.875 141.099ZM41.875 140.318C42.4053 140.318 42.8172 140.062 43.1108 139.551C43.4044 139.04 43.5511 138.311 43.5511 137.364C43.5511 136.734 43.4837 136.198 43.3487 135.755C43.2161 135.312 43.0244 134.975 42.7734 134.743C42.5249 134.511 42.2254 134.395 41.875 134.395C41.3494 134.395 40.9387 134.654 40.6428 135.173C40.3468 135.689 40.1989 136.419 40.1989 137.364C40.1989 137.993 40.2652 138.528 40.3977 138.969C40.5303 139.409 40.7209 139.744 40.9695 139.974C41.2204 140.203 41.5223 140.318 41.875 140.318Z" fill="#374151"/>
<path d="M20.9703 94.0994C20.6721 94.0947 20.3738 94.0379 20.0755 93.929C19.7772 93.8201 19.5049 93.6366 19.2587 93.3786C19.0125 93.1181 18.8148 92.7666 18.6657 92.3239C18.5165 91.8788 18.4419 91.3201 18.4419 90.6477C18.4419 90.0038 18.5023 89.4332 18.623 88.9361C18.7438 88.4366 18.919 88.0163 19.1486 87.6754C19.3783 87.3321 19.6552 87.0717 19.9796 86.8942C20.3063 86.7166 20.6744 86.6278 21.084 86.6278C21.4912 86.6278 21.8534 86.7095 22.1706 86.8729C22.4902 87.0339 22.7507 87.2588 22.9519 87.5476C23.1531 87.8364 23.2833 88.169 23.3425 88.5455H22.476C22.3955 88.2187 22.2393 87.9477 22.0073 87.7322C21.7753 87.5168 21.4675 87.4091 21.084 87.4091C20.5205 87.4091 20.0766 87.6541 19.7523 88.1442C19.4303 88.6342 19.2682 89.322 19.2658 90.2074H19.3226C19.4552 90.0062 19.6126 89.8345 19.7949 89.6925C19.9796 89.5481 20.1832 89.4368 20.4057 89.3587C20.6283 89.2805 20.8638 89.2415 21.1124 89.2415C21.5291 89.2415 21.9102 89.3456 22.2559 89.554C22.6015 89.7599 22.8785 90.0452 23.0868 90.4098C23.2952 90.772 23.3993 91.1875 23.3993 91.6562C23.3993 92.1061 23.2987 92.518 23.0975 92.892C22.8962 93.2637 22.6133 93.5597 22.2488 93.7798C21.8865 93.9976 21.4604 94.1042 20.9703 94.0994ZM20.9703 93.3182C21.2686 93.3182 21.5362 93.2436 21.7729 93.0945C22.012 92.9453 22.2002 92.7453 22.3375 92.4943C22.4772 92.2434 22.5471 91.964 22.5471 91.6562C22.5471 91.3556 22.4796 91.0821 22.3446 90.8359C22.2121 90.5874 22.0286 90.3897 21.7942 90.2429C21.5622 90.0961 21.2971 90.0227 20.9988 90.0227C20.7739 90.0227 20.5643 90.0677 20.3702 90.1577C20.1761 90.2453 20.0056 90.366 19.8588 90.5199C19.7144 90.6738 19.6008 90.8501 19.5179 91.049C19.4351 91.2455 19.3936 91.4527 19.3936 91.6705C19.3936 91.9593 19.4611 92.2292 19.5961 92.4801C19.7334 92.7311 19.9204 92.9335 20.1571 93.0874C20.3962 93.2412 20.6673 93.3182 20.9703 93.3182ZM25.7182 93.0057L25.6614 93.3892C25.6212 93.6591 25.5596 93.9479 25.4767 94.2557C25.3962 94.5634 25.3122 94.8535 25.2246 95.1257C25.137 95.398 25.0648 95.6146 25.008 95.7756H24.3688C24.3996 95.6241 24.4398 95.424 24.4895 95.1754C24.5392 94.9268 24.589 94.6487 24.6387 94.3409C24.6908 94.0355 24.7334 93.723 24.7665 93.4034L24.8091 93.0057H25.7182ZM29.375 94.0994C28.84 94.0994 28.3842 93.9538 28.0078 93.6626C27.6314 93.3691 27.3438 92.9441 27.1449 92.3878C26.946 91.8291 26.8466 91.1544 26.8466 90.3636C26.8466 89.5777 26.946 88.9065 27.1449 88.3501C27.3461 87.7914 27.6349 87.3653 28.0114 87.0717C28.3902 86.7758 28.8447 86.6278 29.375 86.6278C29.9053 86.6278 30.3587 86.7758 30.7351 87.0717C31.1139 87.3653 31.4027 87.7914 31.6016 88.3501C31.8028 88.9065 31.9034 89.5777 31.9034 90.3636C31.9034 91.1544 31.804 91.8291 31.6051 92.3878C31.4062 92.9441 31.1186 93.3691 30.7422 93.6626C30.3658 93.9538 29.91 94.0994 29.375 94.0994ZM29.375 93.3182C29.9053 93.3182 30.3172 93.0625 30.6108 92.5511C30.9044 92.0398 31.0511 91.3106 31.0511 90.3636C31.0511 89.7339 30.9837 89.1977 30.8487 88.755C30.7161 88.3123 30.5244 87.9749 30.2734 87.7429C30.0249 87.5109 29.7254 87.3949 29.375 87.3949C28.8494 87.3949 28.4387 87.6541 28.1428 88.1726C27.8468 88.6887 27.6989 89.419 27.6989 90.3636C27.6989 90.9934 27.7652 91.5284 27.8977 91.9688C28.0303 92.4091 28.2209 92.7441 28.4695 92.9737C28.7204 93.2034 29.0223 93.3182 29.375 93.3182ZM35.625 94.0994C35.09 94.0994 34.6342 93.9538 34.2578 93.6626C33.8814 93.3691 33.5938 92.9441 33.3949 92.3878C33.196 91.8291 33.0966 91.1544 33.0966 90.3636C33.0966 89.5777 33.196 88.9065 33.3949 88.3501C33.5961 87.7914 33.8849 87.3653 34.2614 87.0717C34.6402 86.7758 35.0947 86.6278 35.625 86.6278C36.1553 86.6278 36.6087 86.7758 36.9851 87.0717C37.3639 87.3653 37.6527 87.7914 37.8516 88.3501C38.0528 88.9065 38.1534 89.5777 38.1534 90.3636C38.1534 91.1544 38.054 91.8291 37.8551 92.3878C37.6562 92.9441 37.3686 93.3691 36.9922 93.6626C36.6158 93.9538 36.16 94.0994 35.625 94.0994ZM35.625 93.3182C36.1553 93.3182 36.5672 93.0625 36.8608 92.5511C37.1544 92.0398 37.3011 91.3106 37.3011 90.3636C37.3011 89.7339 37.2337 89.1977 37.0987 88.755C36.9661 88.3123 36.7744 87.9749 36.5234 87.7429C36.2749 87.5109 35.9754 87.3949 35.625 87.3949C35.0994 87.3949 34.6887 87.6541 34.3928 88.1726C34.0968 88.6887 33.9489 89.419 33.9489 90.3636C33.9489 90.9934 34.0152 91.5284 34.1477 91.9688C34.2803 92.4091 34.4709 92.7441 34.7195 92.9737C34.9704 93.2034 35.2723 93.3182 35.625 93.3182ZM41.875 94.0994C41.34 94.0994 40.8842 93.9538 40.5078 93.6626C40.1314 93.3691 39.8438 92.9441 39.6449 92.3878C39.446 91.8291 39.3466 91.1544 39.3466 90.3636C39.3466 89.5777 39.446 88.9065 39.6449 88.3501C39.8461 87.7914 40.1349 87.3653 40.5114 87.0717C40.8902 86.7758 41.3447 86.6278 41.875 86.6278C42.4053 86.6278 42.8587 86.7758 43.2351 87.0717C43.6139 87.3653 43.9027 87.7914 44.1016 88.3501C44.3028 88.9065 44.4034 89.5777 44.4034 90.3636C44.4034 91.1544 44.304 91.8291 44.1051 92.3878C43.9062 92.9441 43.6186 93.3691 43.2422 93.6626C42.8658 93.9538 42.41 94.0994 41.875 94.0994ZM41.875 93.3182C42.4053 93.3182 42.8172 93.0625 43.1108 92.5511C43.4044 92.0398 43.5511 91.3106 43.5511 90.3636C43.5511 89.7339 43.4837 89.1977 43.3487 88.755C43.2161 88.3123 43.0244 87.9749 42.7734 87.7429C42.5249 87.5109 42.2254 87.3949 41.875 87.3949C41.3494 87.3949 40.9387 87.6541 40.6428 88.1726C40.3468 88.6887 40.1989 89.419 40.1989 90.3636C40.1989 90.9934 40.2652 91.5284 40.3977 91.9688C40.5303 92.4091 40.7209 92.7441 40.9695 92.9737C41.2204 93.2034 41.5223 93.3182 41.875 93.3182Z" fill="#374151"/>
<path d="M20.8461 46.0994C20.3584 46.0994 19.9275 46.013 19.5534 45.8402C19.1818 45.665 18.8917 45.4247 18.6834 45.1193C18.4751 44.8116 18.3721 44.4612 18.3745 44.0682C18.3721 43.7604 18.4325 43.4763 18.5556 43.2159C18.6787 42.9531 18.8468 42.7341 19.0598 42.5589C19.2753 42.3814 19.5156 42.2689 19.7807 42.2216V42.179C19.4327 42.089 19.1557 41.8937 18.9498 41.593C18.7438 41.29 18.642 40.9455 18.6444 40.5597C18.642 40.1903 18.7355 39.8601 18.9249 39.5689C19.1143 39.2777 19.3747 39.0481 19.7061 38.88C20.04 38.7119 20.4199 38.6278 20.8461 38.6278C21.2675 38.6278 21.6439 38.7119 21.9753 38.88C22.3068 39.0481 22.5672 39.2777 22.7566 39.5689C22.9483 39.8601 23.0454 40.1903 23.0478 40.5597C23.0454 40.9455 22.94 41.29 22.7317 41.593C22.5257 41.8937 22.2523 42.089 21.9114 42.179V42.2216C22.1742 42.2689 22.4109 42.3814 22.6216 42.5589C22.8323 42.7341 23.0004 42.9531 23.1259 43.2159C23.2514 43.4763 23.3153 43.7604 23.3176 44.0682C23.3153 44.4612 23.2087 44.8116 22.998 45.1193C22.7897 45.4247 22.4997 45.665 22.128 45.8402C21.7587 46.013 21.3314 46.0994 20.8461 46.0994ZM20.8461 45.3182C21.1751 45.3182 21.4592 45.2649 21.6983 45.1584C21.9374 45.0518 22.1221 44.9015 22.2523 44.7074C22.3825 44.5133 22.4488 44.286 22.4512 44.0256C22.4488 43.7509 22.3778 43.5083 22.2381 43.2976C22.0984 43.0869 21.9078 42.9212 21.6664 42.8004C21.4273 42.6797 21.1538 42.6193 20.8461 42.6193C20.5359 42.6193 20.2589 42.6797 20.0151 42.8004C19.7736 42.9212 19.583 43.0869 19.4434 43.2976C19.306 43.5083 19.2386 43.7509 19.2409 44.0256C19.2386 44.286 19.3013 44.5133 19.4292 44.7074C19.5594 44.9015 19.7452 45.0518 19.9867 45.1584C20.2282 45.2649 20.5146 45.3182 20.8461 45.3182ZM20.8461 41.8665C21.1065 41.8665 21.3373 41.8144 21.5385 41.7102C21.7421 41.6061 21.9019 41.4605 22.0179 41.2734C22.1339 41.0864 22.1931 40.8674 22.1955 40.6165C22.1931 40.3703 22.1351 40.156 22.0215 39.9737C21.9078 39.7891 21.7504 39.647 21.5492 39.5476C21.348 39.4458 21.1136 39.3949 20.8461 39.3949C20.5738 39.3949 20.3359 39.4458 20.1323 39.5476C19.9287 39.647 19.7712 39.7891 19.66 39.9737C19.5487 40.156 19.4943 40.3703 19.4966 40.6165C19.4943 40.8674 19.5499 41.0864 19.6635 41.2734C19.7795 41.4605 19.9393 41.6061 20.1429 41.7102C20.3465 41.8144 20.5809 41.8665 20.8461 41.8665ZM25.7182 45.0057L25.6614 45.3892C25.6212 45.6591 25.5596 45.9479 25.4767 46.2557C25.3962 46.5634 25.3122 46.8535 25.2246 47.1257C25.137 47.398 25.0648 47.6146 25.008 47.7756H24.3688C24.3996 47.6241 24.4398 47.424 24.4895 47.1754C24.5392 46.9268 24.589 46.6487 24.6387 46.3409C24.6908 46.0355 24.7334 45.723 24.7665 45.4034L24.8091 45.0057H25.7182ZM29.375 46.0994C28.84 46.0994 28.3842 45.9538 28.0078 45.6626C27.6314 45.3691 27.3438 44.9441 27.1449 44.3878C26.946 43.8291 26.8466 43.1544 26.8466 42.3636C26.8466 41.5777 26.946 40.9065 27.1449 40.3501C27.3461 39.7914 27.6349 39.3653 28.0114 39.0717C28.3902 38.7758 28.8447 38.6278 29.375 38.6278C29.9053 38.6278 30.3587 38.7758 30.7351 39.0717C31.1139 39.3653 31.4027 39.7914 31.6016 40.3501C31.8028 40.9065 31.9034 41.5777 31.9034 42.3636C31.9034 43.1544 31.804 43.8291 31.6051 44.3878C31.4062 44.9441 31.1186 45.3691 30.7422 45.6626C30.3658 45.9538 29.91 46.0994 29.375 46.0994ZM29.375 45.3182C29.9053 45.3182 30.3172 45.0625 30.6108 44.5511C30.9044 44.0398 31.0511 43.3106 31.0511 42.3636C31.0511 41.7339 30.9837 41.1977 30.8487 40.755C30.7161 40.3123 30.5244 39.9749 30.2734 39.7429C30.0249 39.5109 29.7254 39.3949 29.375 39.3949C28.8494 39.3949 28.4387 39.6541 28.1428 40.1726C27.8468 40.6887 27.6989 41.419 27.6989 42.3636C27.6989 42.9934 27.7652 43.5284 27.8977 43.9688C28.0303 44.4091 28.2209 44.7441 28.4695 44.9737C28.7204 45.2034 29.0223 45.3182 29.375 45.3182ZM35.625 46.0994C35.09 46.0994 34.6342 45.9538 34.2578 45.6626C33.8814 45.3691 33.5938 44.9441 33.3949 44.3878C33.196 43.8291 33.0966 43.1544 33.0966 42.3636C33.0966 41.5777 33.196 40.9065 33.3949 40.3501C33.5961 39.7914 33.8849 39.3653 34.2614 39.0717C34.6402 38.7758 35.0947 38.6278 35.625 38.6278C36.1553 38.6278 36.6087 38.7758 36.9851 39.0717C37.3639 39.3653 37.6527 39.7914 37.8516 40.3501C38.0528 40.9065 38.1534 41.5777 38.1534 42.3636C38.1534 43.1544 38.054 43.8291 37.8551 44.3878C37.6562 44.9441 37.3686 45.3691 36.9922 45.6626C36.6158 45.9538 36.16 46.0994 35.625 46.0994ZM35.625 45.3182C36.1553 45.3182 36.5672 45.0625 36.8608 44.5511C37.1544 44.0398 37.3011 43.3106 37.3011 42.3636C37.3011 41.7339 37.2337 41.1977 37.0987 40.755C36.9661 40.3123 36.7744 39.9749 36.5234 39.7429C36.2749 39.5109 35.9754 39.3949 35.625 39.3949C35.0994 39.3949 34.6887 39.6541 34.3928 40.1726C34.0968 40.6887 33.9489 41.419 33.9489 42.3636C33.9489 42.9934 34.0152 43.5284 34.1477 43.9688C34.2803 44.4091 34.4709 44.7441 34.7195 44.9737C34.9704 45.2034 35.2723 45.3182 35.625 45.3182ZM41.875 46.0994C41.34 46.0994 40.8842 45.9538 40.5078 45.6626C40.1314 45.3691 39.8438 44.9441 39.6449 44.3878C39.446 43.8291 39.3466 43.1544 39.3466 42.3636C39.3466 41.5777 39.446 40.9065 39.6449 40.3501C39.8461 39.7914 40.1349 39.3653 40.5114 39.0717C40.8902 38.7758 41.3447 38.6278 41.875 38.6278C42.4053 38.6278 42.8587 38.7758 43.2351 39.0717C43.6139 39.3653 43.9027 39.7914 44.1016 40.3501C44.3028 40.9065 44.4034 41.5777 44.4034 42.3636C44.4034 43.1544 44.304 43.8291 44.1051 44.3878C43.9062 44.9441 43.6186 45.3691 43.2422 45.6626C42.8658 45.9538 42.41 46.0994 41.875 46.0994ZM41.875 45.3182C42.4053 45.3182 42.8172 45.0625 43.1108 44.5511C43.4044 44.0398 43.5511 43.3106 43.5511 42.3636C43.5511 41.7339 43.4837 41.1977 43.3487 40.755C43.2161 40.3123 43.0244 39.9749 42.7734 39.7429C42.5249 39.5109 42.2254 39.3949 41.875 39.3949C41.3494 39.3949 40.9387 39.6541 40.6428 40.1726C40.3468 40.6887 40.1989 41.419 40.1989 42.3636C40.1989 42.9934 40.2652 43.5284 40.3977 43.9688C40.5303 44.4091 40.7209 44.7441 40.9695 44.9737C41.2204 45.2034 41.5223 45.3182 41.875 45.3182Z" fill="#374151"/>
<path d="M130.131 251V243.727H134.491V244.509H131.011V246.966H134.165V247.747H131.011V251H130.131ZM137.773 251.114C137.247 251.114 136.794 250.998 136.413 250.766C136.034 250.531 135.741 250.205 135.536 249.786C135.332 249.364 135.23 248.874 135.23 248.315C135.23 247.757 135.332 247.264 135.536 246.838C135.741 246.41 136.028 246.076 136.395 245.837C136.764 245.595 137.195 245.474 137.688 245.474C137.972 245.474 138.252 245.522 138.529 245.616C138.806 245.711 139.058 245.865 139.286 246.078C139.513 246.289 139.694 246.568 139.829 246.916C139.964 247.264 140.031 247.693 140.031 248.202V248.557H135.827V247.832H139.179C139.179 247.525 139.117 247.25 138.994 247.009C138.874 246.767 138.701 246.576 138.476 246.437C138.253 246.297 137.991 246.227 137.688 246.227C137.354 246.227 137.065 246.31 136.821 246.476C136.58 246.639 136.394 246.852 136.263 247.115C136.133 247.378 136.068 247.66 136.068 247.96V248.443C136.068 248.855 136.139 249.204 136.281 249.491C136.426 249.775 136.626 249.991 136.881 250.141C137.137 250.287 137.434 250.361 137.773 250.361C137.993 250.361 138.192 250.33 138.369 250.268C138.549 250.205 138.704 250.11 138.835 249.984C138.965 249.857 139.065 249.698 139.136 249.509L139.946 249.736C139.861 250.01 139.718 250.252 139.516 250.46C139.315 250.666 139.067 250.827 138.771 250.943C138.475 251.057 138.142 251.114 137.773 251.114ZM141.42 251V243.727H142.258V246.412H142.329C142.39 246.317 142.476 246.196 142.585 246.05C142.696 245.901 142.854 245.768 143.06 245.652C143.269 245.534 143.55 245.474 143.906 245.474C144.365 245.474 144.77 245.589 145.12 245.819C145.47 246.049 145.744 246.374 145.94 246.795C146.137 247.217 146.235 247.714 146.235 248.287C146.235 248.865 146.137 249.365 145.94 249.789C145.744 250.21 145.472 250.537 145.124 250.769C144.776 250.999 144.374 251.114 143.92 251.114C143.569 251.114 143.289 251.056 143.078 250.94C142.867 250.821 142.705 250.687 142.592 250.538C142.478 250.387 142.39 250.261 142.329 250.162H142.229V251H141.42ZM142.244 248.273C142.244 248.685 142.304 249.048 142.425 249.363C142.545 249.675 142.722 249.92 142.954 250.098C143.186 250.273 143.47 250.361 143.806 250.361C144.156 250.361 144.449 250.268 144.683 250.084C144.92 249.897 145.098 249.646 145.216 249.331C145.337 249.014 145.397 248.661 145.397 248.273C145.397 247.889 145.338 247.544 145.219 247.236C145.103 246.926 144.927 246.681 144.69 246.501C144.456 246.318 144.161 246.227 143.806 246.227C143.465 246.227 143.179 246.314 142.947 246.487C142.715 246.657 142.54 246.896 142.421 247.204C142.303 247.509 142.244 247.866 142.244 248.273Z" fill="#374151"/>
<path d="M173.255 243.727H174.306L176.777 249.764H176.863L179.334 243.727H180.385V251H179.562V245.474H179.491L177.218 251H176.422L174.15 245.474H174.079V251H173.255V243.727ZM183.643 251.128C183.297 251.128 182.983 251.063 182.702 250.933C182.42 250.8 182.196 250.609 182.03 250.361C181.865 250.11 181.782 249.807 181.782 249.452C181.782 249.139 181.843 248.886 181.967 248.692C182.09 248.495 182.254 248.341 182.46 248.23C182.666 248.119 182.893 248.036 183.142 247.982C183.393 247.925 183.645 247.88 183.898 247.847C184.23 247.804 184.498 247.772 184.704 247.751C184.913 247.727 185.064 247.688 185.159 247.634C185.256 247.579 185.305 247.484 185.305 247.349V247.321C185.305 246.971 185.209 246.698 185.017 246.504C184.828 246.31 184.54 246.213 184.154 246.213C183.754 246.213 183.44 246.301 183.213 246.476C182.986 246.651 182.826 246.838 182.734 247.037L181.938 246.753C182.08 246.421 182.27 246.163 182.506 245.979C182.745 245.792 183.006 245.661 183.288 245.588C183.572 245.512 183.851 245.474 184.126 245.474C184.301 245.474 184.502 245.496 184.729 245.538C184.959 245.579 185.18 245.663 185.393 245.79C185.609 245.918 185.788 246.111 185.93 246.369C186.072 246.627 186.143 246.973 186.143 247.406V251H185.305V250.261H185.262C185.205 250.38 185.11 250.506 184.978 250.641C184.845 250.776 184.669 250.891 184.449 250.986C184.229 251.08 183.96 251.128 183.643 251.128ZM183.771 250.375C184.102 250.375 184.381 250.31 184.609 250.18C184.838 250.049 185.011 249.881 185.127 249.675C185.245 249.469 185.305 249.253 185.305 249.026V248.259C185.269 248.301 185.191 248.34 185.07 248.376C184.952 248.409 184.815 248.438 184.658 248.464C184.504 248.488 184.354 248.509 184.207 248.528C184.063 248.545 183.946 248.559 183.856 248.571C183.638 248.599 183.434 248.646 183.245 248.71C183.058 248.771 182.906 248.865 182.79 248.99C182.677 249.113 182.62 249.281 182.62 249.494C182.62 249.786 182.728 250.006 182.943 250.155C183.161 250.302 183.437 250.375 183.771 250.375ZM187.672 251V245.545H188.482V246.369H188.539C188.638 246.099 188.818 245.88 189.079 245.712C189.339 245.544 189.633 245.46 189.959 245.46C190.021 245.46 190.098 245.461 190.19 245.464C190.282 245.466 190.352 245.47 190.4 245.474V246.327C190.371 246.32 190.306 246.309 190.204 246.295C190.105 246.278 189.999 246.27 189.888 246.27C189.623 246.27 189.386 246.326 189.178 246.437C188.972 246.546 188.809 246.697 188.688 246.891C188.57 247.083 188.51 247.302 188.51 247.548V251H187.672Z" fill="#374151"/>
<path d="M214.393 251H213.47L216.14 243.727H217.049L219.72 251H218.796L216.623 244.878H216.566L214.393 251ZM214.734 248.159H218.455V248.94H214.734V248.159ZM220.739 253.045V245.545H221.548V246.412H221.648C221.709 246.317 221.795 246.196 221.903 246.05C222.015 245.901 222.173 245.768 222.379 245.652C222.588 245.534 222.869 245.474 223.225 245.474C223.684 245.474 224.089 245.589 224.439 245.819C224.789 246.049 225.063 246.374 225.259 246.795C225.456 247.217 225.554 247.714 225.554 248.287C225.554 248.865 225.456 249.365 225.259 249.789C225.063 250.21 224.791 250.537 224.443 250.769C224.095 250.999 223.693 251.114 223.239 251.114C222.888 251.114 222.608 251.056 222.397 250.94C222.186 250.821 222.024 250.687 221.911 250.538C221.797 250.387 221.709 250.261 221.648 250.162H221.577V253.045H220.739ZM221.563 248.273C221.563 248.685 221.623 249.048 221.744 249.363C221.864 249.675 222.041 249.92 222.273 250.098C222.505 250.273 222.789 250.361 223.125 250.361C223.475 250.361 223.768 250.268 224.002 250.084C224.239 249.897 224.417 249.646 224.535 249.331C224.656 249.014 224.716 248.661 224.716 248.273C224.716 247.889 224.657 247.544 224.538 247.236C224.422 246.926 224.246 246.681 224.009 246.501C223.775 246.318 223.48 246.227 223.125 246.227C222.784 246.227 222.498 246.314 222.266 246.487C222.034 246.657 221.859 246.896 221.74 247.204C221.622 247.509 221.563 247.866 221.563 248.273ZM226.832 251V245.545H227.642V246.369H227.699C227.798 246.099 227.978 245.88 228.239 245.712C228.499 245.544 228.793 245.46 229.119 245.46C229.181 245.46 229.258 245.461 229.35 245.464C229.443 245.466 229.512 245.47 229.56 245.474V246.327C229.531 246.32 229.466 246.309 229.364 246.295C229.265 246.278 229.16 246.27 229.048 246.27C228.783 246.27 228.546 246.326 228.338 246.437C228.132 246.546 227.969 246.697 227.848 246.891C227.73 247.083 227.671 247.302 227.671 247.548V251H226.832Z" fill="#374151"/>
<path d="M251.93 243.727H252.981L255.452 249.764H255.537L258.009 243.727H259.06V251H258.236V245.474H258.165L255.893 251H255.097L252.824 245.474H252.753V251H251.93V243.727ZM262.317 251.128C261.972 251.128 261.658 251.063 261.376 250.933C261.095 250.8 260.871 250.609 260.705 250.361C260.54 250.11 260.457 249.807 260.457 249.452C260.457 249.139 260.518 248.886 260.641 248.692C260.764 248.495 260.929 248.341 261.135 248.23C261.341 248.119 261.568 248.036 261.817 247.982C262.068 247.925 262.32 247.88 262.573 247.847C262.905 247.804 263.173 247.772 263.379 247.751C263.588 247.727 263.739 247.688 263.834 247.634C263.931 247.579 263.979 247.484 263.979 247.349V247.321C263.979 246.971 263.884 246.698 263.692 246.504C263.502 246.31 263.215 246.213 262.829 246.213C262.429 246.213 262.115 246.301 261.888 246.476C261.661 246.651 261.501 246.838 261.408 247.037L260.613 246.753C260.755 246.421 260.944 246.163 261.181 245.979C261.42 245.792 261.681 245.661 261.962 245.588C262.246 245.512 262.526 245.474 262.8 245.474C262.976 245.474 263.177 245.496 263.404 245.538C263.634 245.579 263.855 245.663 264.068 245.79C264.284 245.918 264.462 246.111 264.604 246.369C264.746 246.627 264.817 246.973 264.817 247.406V251H263.979V250.261H263.937C263.88 250.38 263.785 250.506 263.653 250.641C263.52 250.776 263.344 250.891 263.124 250.986C262.903 251.08 262.635 251.128 262.317 251.128ZM262.445 250.375C262.777 250.375 263.056 250.31 263.283 250.18C263.513 250.049 263.686 249.881 263.802 249.675C263.92 249.469 263.979 249.253 263.979 249.026V248.259C263.944 248.301 263.866 248.34 263.745 248.376C263.627 248.409 263.489 248.438 263.333 248.464C263.179 248.488 263.029 248.509 262.882 248.528C262.738 248.545 262.621 248.559 262.531 248.571C262.313 248.599 262.109 248.646 261.92 248.71C261.733 248.771 261.581 248.865 261.465 248.99C261.352 249.113 261.295 249.281 261.295 249.494C261.295 249.786 261.402 250.006 261.618 250.155C261.836 250.302 262.112 250.375 262.445 250.375ZM266.692 253.045C266.55 253.045 266.423 253.034 266.312 253.01C266.2 252.989 266.123 252.967 266.081 252.946L266.294 252.207C266.497 252.259 266.677 252.278 266.834 252.264C266.99 252.25 267.128 252.18 267.249 252.055C267.372 251.932 267.485 251.732 267.586 251.455L267.743 251.028L265.726 245.545H266.635L268.14 249.892H268.197L269.703 245.545H270.612L268.297 251.795C268.193 252.077 268.064 252.31 267.91 252.495C267.756 252.682 267.577 252.821 267.373 252.911C267.172 253 266.945 253.045 266.692 253.045Z" fill="#374151"/>
<path d="M298.12 243.727H299.001V248.926C299.001 249.39 298.915 249.784 298.745 250.109C298.574 250.433 298.334 250.679 298.024 250.847C297.714 251.015 297.348 251.099 296.927 251.099C296.529 251.099 296.175 251.027 295.865 250.883C295.555 250.736 295.311 250.528 295.133 250.258C294.956 249.988 294.867 249.667 294.867 249.295H295.733C295.733 249.501 295.784 249.681 295.886 249.835C295.99 249.987 296.132 250.105 296.312 250.19C296.492 250.276 296.697 250.318 296.927 250.318C297.18 250.318 297.395 250.265 297.573 250.158C297.751 250.052 297.885 249.896 297.978 249.69C298.073 249.481 298.12 249.227 298.12 248.926V243.727ZM304.089 248.77V245.545H304.927V251H304.089V250.077H304.032C303.905 250.354 303.706 250.589 303.436 250.783C303.166 250.975 302.825 251.071 302.413 251.071C302.072 251.071 301.769 250.996 301.504 250.847C301.239 250.696 301.031 250.469 300.879 250.165C300.728 249.86 300.652 249.475 300.652 249.011V245.545H301.49V248.955C301.49 249.352 301.601 249.67 301.824 249.906C302.049 250.143 302.335 250.261 302.683 250.261C302.891 250.261 303.103 250.208 303.319 250.102C303.537 249.995 303.719 249.832 303.866 249.612C304.015 249.391 304.089 249.111 304.089 248.77ZM307.3 247.719V251H306.462V245.545H307.272V246.398H307.343C307.471 246.121 307.665 245.898 307.925 245.73C308.186 245.56 308.522 245.474 308.934 245.474C309.303 245.474 309.626 245.55 309.903 245.702C310.18 245.851 310.396 246.078 310.55 246.384C310.704 246.687 310.781 247.07 310.781 247.534V251H309.942V247.591C309.942 247.162 309.831 246.829 309.609 246.589C309.386 246.348 309.081 246.227 308.692 246.227C308.425 246.227 308.186 246.285 307.975 246.401C307.767 246.517 307.602 246.687 307.482 246.909C307.361 247.132 307.3 247.402 307.3 247.719Z" fill="#374151"/>
<path d="M344.858 243.727H345.739V248.926C345.739 249.39 345.654 249.784 345.483 250.109C345.313 250.433 345.072 250.679 344.762 250.847C344.452 251.015 344.086 251.099 343.665 251.099C343.267 251.099 342.913 251.027 342.603 250.883C342.293 250.736 342.049 250.528 341.872 250.258C341.694 249.988 341.605 249.667 341.605 249.295H342.472C342.472 249.501 342.523 249.681 342.624 249.835C342.729 249.987 342.871 250.105 343.051 250.19C343.231 250.276 343.435 250.318 343.665 250.318C343.918 250.318 344.134 250.265 344.311 250.158C344.489 250.052 344.624 249.896 344.716 249.69C344.811 249.481 344.858 249.227 344.858 248.926V243.727ZM350.828 248.77V245.545H351.666V251H350.828V250.077H350.771C350.643 250.354 350.444 250.589 350.174 250.783C349.904 250.975 349.563 251.071 349.151 251.071C348.811 251.071 348.508 250.996 348.242 250.847C347.977 250.696 347.769 250.469 347.617 250.165C347.466 249.86 347.39 249.475 347.39 249.011V245.545H348.228V248.955C348.228 249.352 348.339 249.67 348.562 249.906C348.787 250.143 349.073 250.261 349.421 250.261C349.63 250.261 349.842 250.208 350.057 250.102C350.275 249.995 350.457 249.832 350.604 249.612C350.753 249.391 350.828 249.111 350.828 248.77ZM354.039 243.727V251H353.201V243.727H354.039Z" fill="#374151"/>
<path d="M379.348 251H378.425L381.095 243.727H382.004L384.675 251H383.751L381.578 244.878H381.521L379.348 251ZM379.689 248.159H383.41V248.94H379.689V248.159ZM389.131 248.77V245.545H389.969V251H389.131V250.077H389.074C388.947 250.354 388.748 250.589 388.478 250.783C388.208 250.975 387.867 251.071 387.455 251.071C387.114 251.071 386.811 250.996 386.546 250.847C386.281 250.696 386.073 250.469 385.921 250.165C385.77 249.86 385.694 249.475 385.694 249.011V245.545H386.532V248.955C386.532 249.352 386.643 249.67 386.866 249.906C387.091 250.143 387.377 250.261 387.725 250.261C387.933 250.261 388.145 250.208 388.361 250.102C388.579 249.995 388.761 249.832 388.908 249.612C389.057 249.391 389.131 249.111 389.131 248.77ZM393.706 253.159C393.301 253.159 392.953 253.107 392.662 253.003C392.371 252.901 392.128 252.766 391.934 252.598C391.742 252.432 391.59 252.255 391.476 252.065L392.144 251.597C392.219 251.696 392.315 251.81 392.431 251.938C392.547 252.068 392.706 252.18 392.907 252.275C393.111 252.372 393.377 252.42 393.706 252.42C394.146 252.42 394.51 252.314 394.796 252.101C395.083 251.888 395.226 251.554 395.226 251.099V249.991H395.155C395.093 250.091 395.006 250.214 394.892 250.361C394.781 250.505 394.62 250.634 394.409 250.748C394.201 250.859 393.919 250.915 393.564 250.915C393.124 250.915 392.728 250.811 392.378 250.602C392.03 250.394 391.754 250.091 391.551 249.693C391.349 249.295 391.249 248.812 391.249 248.244C391.249 247.686 391.347 247.199 391.543 246.785C391.74 246.368 392.013 246.046 392.364 245.819C392.714 245.589 393.119 245.474 393.578 245.474C393.933 245.474 394.215 245.534 394.423 245.652C394.634 245.768 394.795 245.901 394.906 246.05C395.02 246.196 395.108 246.317 395.169 246.412H395.254V245.545H396.064V251.156C396.064 251.625 395.957 252.006 395.744 252.3C395.534 252.596 395.25 252.812 394.892 252.95C394.537 253.089 394.142 253.159 393.706 253.159ZM393.678 250.162C394.014 250.162 394.298 250.085 394.53 249.931C394.762 249.777 394.938 249.556 395.059 249.267C395.18 248.978 395.24 248.633 395.24 248.23C395.24 247.837 395.181 247.49 395.063 247.19C394.944 246.889 394.769 246.653 394.537 246.483C394.305 246.312 394.019 246.227 393.678 246.227C393.323 246.227 393.027 246.317 392.79 246.497C392.555 246.677 392.379 246.919 392.261 247.222C392.145 247.525 392.087 247.861 392.087 248.23C392.087 248.609 392.146 248.944 392.264 249.235C392.385 249.524 392.563 249.751 392.797 249.917C393.034 250.08 393.327 250.162 393.678 250.162Z" fill="#374151"/>
</svg>
